<?xml version="1.0" encoding="utf-8"?>
<!-- Generator: Adobe Illustrator 23.0.2, SVG Export Plug-In . SVG Version: 6.00 Build 0)  -->
<svg version="1.1" id="Layer_1" xmlns="http://www.w3.org/2000/svg" xmlns:xlink="http://www.w3.org/1999/xlink" x="0px" y="0px"
	 viewBox="0 0 2320.8 2662.5" style="enable-background:new 0 0 2320.8 2662.5;" xml:space="preserve">
<style type="text/css">
	.st0{fill:#FFFFFF;}
	.st1{fill:#D20A11;}
	.st2{fill:#009FE3;}
	.st3{fill:#FDC300;}
	.st4{fill:#FFCC00;}
	.st5{fill:#13A538;}
	.st6{fill:none;}
</style>
<g>
	<g>
		<g>
			<g>
				<path d="M2002.9,1906.7C1803.2,2144,1504,2295,1169.3,2295c-331.3,0-627.6-147.8-827.5-381.2l-236.6,284.6
					c265.8,285.3,644.9,464.1,1065.6,464.1c423.2,0,804.2-180.8,1069.9-469.1L2002.9,1906.7z"/>
			</g>
			<g>
				<path d="M1815.7,816.7v1263.7c0,36.5-23.2,68.1-55.5,80.2l-586.8,227.5l-586.9-227.5c-32.3-12.1-55.6-43.7-55.6-80.2l0-1263.7
					H1815.7z"/>
			</g>
			<g>
				<polygon class="st0" points="561.4,1792.3 561.4,1013.5 1784.8,1013.5 1785,1792.3 				"/>
			</g>
			<g>
				<path class="st1" d="M1785,1719.2c-10.7,17.2-37.1,29.3-67.8,29.3c-31,0-57.6-12.1-68.1-29.5c-10.9,17.4-37.3,29.5-68.2,29.5
					c-31,0-57.2-12.1-68-29.3c-10.9,17.2-37.1,29.3-67.9,29.3c-31,0-57.2-12.1-68.1-29.5h-0.3c-10.6,17.4-37,29.5-67.8,29.5
					c-30.9,0-57.1-12.1-67.8-29.3c-10.9,17.2-37.5,29.3-68.1,29.3c-31,0-57.3-12.1-68-29.5h0.2c-11,17.4-37.2,29.5-67.9,29.5
					c-31,0-57.4-12.1-68.2-29.3c-10.8,17.2-37.3,29.3-68.1,29.3c-30.7,0-57.1-12.1-67.9-29.5h-0.3c-10.6,17.4-37.1,29.5-67.7,29.5
					c-31.1,0-57.3-12.1-68.2-29.3v0.5c-10.8,17.3-37.1,28.8-67.7,28.8c-31.3,0-57.5-12.1-68.1-29.5v-1.5l0.4,344.2
					c0,34.9,22,64.7,52.9,76.3l559.1,217l558.6-217c30.9-11.6,53-41.3,53-76.3v-343.9"/>
			</g>
			<g>
				<path class="st2" d="M1785,1683.3c-10.7,17.1-37.1,29.4-67.8,29.4c-31,0-57.6-12.3-68.1-29.4c-10.9,17-37.3,29.4-68.2,29.4
					c-31,0-57.2-12.3-68-29.4c-10.9,17.1-37.1,29.4-67.9,29.4c-31,0-57.2-12.3-68.1-29.4h-0.3c-10.6,17-37,29.4-67.8,29.4
					c-30.9,0-57.1-12.3-67.8-29.4c-10.9,17.1-37.5,29.4-68.1,29.4c-31,0-57.3-12.3-68-29.4h0.2c-11,17-37.2,29.4-67.9,29.4
					c-31,0-57.4-12.3-68.2-29.4c-10.8,17.1-37.3,29.4-68.1,29.4c-30.7,0-57.1-12.3-67.9-29.4h-0.3c-10.6,17-37.1,29.4-67.7,29.4
					c-31.1,0-57.3-12.3-68.2-29.4v0.6c-10.8,17.2-37.1,28.8-67.7,28.8c-31.3,0-57.5-12.3-68.1-29.4v-42.7
					c10.7,17.2,36.9,29.6,68.1,29.6c30.6,0,56.8-12.2,67.7-29.4c10.9,17.3,37.1,29.4,68.2,29.4c30.6,0,57.1-12.4,67.7-29.6h0.3
					c10.8,17.2,37.2,29.6,67.9,29.6c30.8,0,57.3-12.2,68.1-29.4c10.8,17.3,37.2,29.4,68.2,29.4c30.8,0,57-12.4,67.9-29.6h-0.2
					c10.7,17.2,37,29.6,68,29.6c30.7,0,57.3-12.2,68.1-29.4c10.7,17.3,36.9,29.4,67.8,29.4c30.8,0,57.2-12.4,67.8-29.6h0.3
					c10.9,17.2,37.1,29.6,68.1,29.6c30.8,0,57.1-12.2,67.9-29.4c10.9,17.3,37,29.4,68,29.4c30.9,0,57.3-12.4,68.2-29.6
					c10.5,17.2,37,29.6,68.1,29.6c30.7,0,57.1-12.2,67.8-29.4L1785,1683.3L1785,1683.3z"/>
			</g>
			<g>
				<path class="st2" d="M1785,1606.5c-10.7,17.1-37.1,29.1-67.8,29.1c-31,0-57.6-12.1-68.1-29.1c-10.9,17-37.3,29.1-68.2,29.1
					c-31,0-57.2-12-68-29.1c-10.9,17.1-37.1,29.1-67.9,29.1c-31,0-57.2-12.1-68.1-29.1h-0.3c-10.6,17-37,29.1-67.8,29.1
					c-30.9,0-57.1-12-67.8-29.1c-10.9,17.1-37.5,29.1-68.1,29.1c-31,0-57.3-12.1-68-29.1h0.2c-11,17-37.2,29.1-67.9,29.1
					c-31,0-57.4-12-68.2-29.1c-10.8,17.1-37.3,29.1-68.1,29.1c-30.7,0-57.1-12.1-67.9-29.1h-0.3c-10.6,17-37.1,29.1-67.7,29.1
					c-31.1,0-57.3-12-68.2-29.1v0.4c-10.8,17.3-37.1,28.7-67.7,28.7c-31.3,0-57.5-12.1-68.1-29.1v-42.6
					c10.7,17.1,36.9,29.4,68.1,29.4c30.6,0,56.8-12,67.7-29.4c10.9,17.4,37.1,29.4,68.2,29.4c30.6,0,57.1-12.3,67.7-29.4h0.3
					c10.8,17.1,37.2,29.4,67.9,29.4c30.8,0,57.3-12,68.1-29.4c10.8,17.4,37.2,29.4,68.2,29.4c30.8,0,57-12.3,67.9-29.4h-0.2
					c10.7,17.1,37,29.4,68,29.4c30.7,0,57.3-12,68.1-29.4c10.7,17.4,36.9,29.4,67.8,29.4c30.8,0,57.2-12.3,67.8-29.4h0.3
					c10.9,17.1,37.1,29.4,68.1,29.4c30.8,0,57.1-12,67.9-29.4c10.9,17.4,37,29.4,68,29.4c30.9,0,57.3-12.3,68.2-29.4
					c10.5,17.1,37,29.4,68.1,29.4c30.7,0,57.1-12,67.8-29.4L1785,1606.5L1785,1606.5z"/>
			</g>
			<g>
				<path d="M1262.9,2111.2c0,0,60,93.9,28.4,67.3c-23-19.8-54.5-65.6-77.4-103.2l-123.1,47.8c0,0-70.7,86.1-55,48
					c11.3-27.4,46.2-72,74.9-105.7l-84.3-101.8c0,0-103.7-40.4-62.6-37.4c26.9,2.1,83,22.2,123.4,38.6l70.3-111.8
					c0,0,6.5-111.2,16.4-71.2c6.8,27.5,4.6,86.9,1.3,130.9l128.8,31.4c0,0,107.8-28.3,72.6-6.6c-24.7,15.5-78.3,31.6-121.2,41.8
					L1262.9,2111.2z"/>
			</g>
			<g>
				<path d="M1299.1,2185.7c-1.5,0-3.8-0.6-9.3-5.3c-28-24.1-64.7-82.2-76.8-102.1l-120.7,46.9c-11.8,14.3-48.5,58.1-57.4,58.1
					c-1.2,0-2.3-0.6-3-1.5c-1.3-1.9-0.8-5.2,1.8-11.4c12.3-29.9,51.1-77.9,74-104.8l-82.6-99.8c-49.7-19.4-74.2-32.3-73.1-38.3
					c0.7-3.6,5.8-3.6,8.1-3.6c1.2,0,2.5,0.1,4,0.2c31.7,2.5,99.4,28.8,122.3,38.1l68.9-109.7c3.2-54.1,8.1-81.5,14.5-81.5
					c3.3,0,5,4.2,6.6,10.5c7.7,31.2,3.7,99.5,1.5,129.6l126.3,30.7c6.3-1.6,57.1-14.7,74.3-14.7c2,0,6.7,0,7.6,3.2
					c0.8,2.7-1.5,5.3-8.1,9.3c-30.2,18.9-97.1,36.1-120,41.6l7.3,129.3c12.8,20,41.1,66,37.1,73.3
					C1301.7,2185,1300.5,2185.7,1299.1,2185.7z M1215,2072.5l1,1.7c10.9,17.9,48.6,78.2,76.9,102.6c2.7,2.3,4.4,3.3,5.3,3.8
					c-1-7.7-19.1-39.6-37.2-68.1l-0.4-1.1l-7.5-133.9l1.9-0.4c42.3-10.1,96.2-26.3,120.5-41.5c2.9-1.8,4.4-3,5.2-3.7
					c-0.5-0.1-1.3-0.1-2.2-0.1c-17.4,0-73.1,14.6-73.7,14.7l-0.6,0.1l-0.6-0.1l-130.8-31.8l0.1-2c2.2-28.7,6.5-98.9-1.2-130.1
					c-0.8-3.4-1.6-5.2-2-6.2c-3.7,6.8-7.8,43.3-9.8,77l-0.4,1.1l-71.3,113.5l-1.8-0.7c-20.7-8.4-90.9-36-122.7-38.5
					c-3.1-0.2-5.4-0.1-6.4,0c5.5,5.6,38.8,20.7,70.1,32.9l1,0.7l85.5,103.3l-1.3,1.5c-22.6,26.4-62.3,75.2-74.6,105.1
					c-1.3,3.2-1.8,5-2,6.1c7.1-3.5,31.7-30.6,53-56.5l1-0.7L1215,2072.5z"/>
			</g>
			<g>
				<path class="st0" d="M1164.8,2086.4c0.7,1.7,2.1,3.1,3.6,3.1c1.5,0,2.6-1.4,3.6-3.1c1.3-3.2,2.6-10.6,2.2-26.2
					c0,0,0.8-52.5,40,3.8c109.8,158.4-46.6,159.4-46.6,159.4h1.5c0,0-156.5-1-46.5-159.4c39.2-56.4,39.7-3.8,39.7-3.8
					c-0.1,15.6,0.8,23,2.5,26.4L1164.8,2086.4L1164.8,2086.4z"/>
			</g>
			<g>
				<path d="M1169,2225.9l-1.4,0c-8.8-0.3-62.2-3.8-80.4-39.9c-14.5-28.8-3.3-70.2,33.5-123.1c12.7-18.2,22.7-27.1,30.5-27.1
					c13.2,0,13.5,23.6,13.5,24.6c-0.1,13.7,0.6,22,2.2,25.3l0.1,0c0.5,1.2,1.2,1.7,1.5,1.7c0,0,0.5-0.1,1.5-1.9
					c0.8-2,2.4-8.3,1.9-25c0-1.1,0.5-24.7,13.7-24.7c7.9,0,17.9,8.9,30.6,27.1c36.7,52.9,47.9,94.3,33.3,123.1
					C1231.2,2222,1177.8,2225.5,1169,2225.9L1169,2225.9L1169,2225.9z M1151.1,2040.3c-3.4,0-11.4,3.3-26.6,25.1
					c-35.7,51.4-46.9,91.2-33.2,118.3c17.5,34.6,70.6,37.2,77,37.4c6.3-0.2,59.5-2.8,77-37.4c13.7-27.1,2.6-66.9-33-118.3
					c-14.4-20.7-22.5-25.1-26.7-25.1c-7.1,0-8.9,14.8-9,19.9c0.4,13.1-0.4,22.5-2.3,27.1c-0.8,1.4-2.5,4.5-5.7,4.5
					c-2.3,0-4.4-1.6-5.6-4.2l-0.1,0c-2.1-4.1-2.9-12.3-2.8-27.5C1159.9,2055.1,1158.1,2040.3,1151.1,2040.3z"/>
			</g>
			<g>
				<path class="st0" d="M1084.3,2022.9c-1.4,1.3-2.1,2.8-1.5,4.1c0.4,1.4,1.8,2.5,3.8,2.6l-0.1-0.1c3.7,0.3,10.9-0.4,25.7-5.7
					c0,0,50.2-15.5,8.8,39c-116.9,153.5-165.8,5.2-165.8,5.2v1.1c0,0-47.1-149.1,137.4-93.4c65.9,19.7,15.8,36.7,15.8,36.7
					C1093.3,2017,1086.9,2020.3,1084.3,2022.9"/>
			</g>
			<g>
				<path d="M1024.4,2134.9c-46.4,0-68.1-56.6-71.1-65l-0.3,0.1c-0.7-2.1-16-51.9,7.3-83.7c20.9-28.5,66.1-32.9,133-12.7
					c23.9,7.1,35.6,14.8,35.7,23.4c0.2,10.7-17.8,17.2-19.8,17.9c-12.8,3.7-20.6,7.1-23.2,9.9c-0.9,0.9-1.1,1.4-1,1.5
					c0.2,0.6,0.5,0.9,1,1.1l0.7,0.1c3.2,0.3,9.7-0.2,24.7-5.5c0.4-0.1,7.1-2.2,13.8-2.2c6.8,0,11.3,2.1,13.4,6.2
					c3.6,7.3-1.5,19.9-15.7,38.6C1087.2,2111.1,1054.1,2134.9,1024.4,2134.9L1024.4,2134.9L1024.4,2134.9z M957.4,2067.4
					c0.2,0.6,21.3,62.8,66.9,62.8c0,0,0,0,0,0c28.2,0,60.1-23.1,94.8-68.7c16.8-22.1,16.8-30.6,15.2-33.6c-1.2-2.4-4.3-3.6-9.2-3.6
					c-6,0-12.3,1.9-12.3,1.9c-8,2.8-14.6,4.6-19.8,5.4l0.8,0.6l-7.4-0.2c-2.7-0.1-4.9-1.6-5.8-3.8l-2.2-1.6l1.8,0.1
					c-0.3-1.7,0.6-3.7,2.4-5.5c3.3-3.4,11.1-6.9,25.1-11c4.2-1.5,16.6-7.1,16.5-13.3c-0.1-3.5-4.4-10.6-32.3-18.9
					c-64.6-19.5-108.3-15.7-127.9,11c-20.2,27.5-9,71.2-7,78.5L957.4,2067.4z"/>
			</g>
			<g>
				<path class="st0" d="M1119.4,1926.3c-1.6-0.9-3.3-0.9-4.5,0c-1.2,0.8-1.6,2.4-1.2,4.3v-0.1c0.7,3.6,3.8,10.4,13.7,22.7
					c0,0,30.1,43-34.7,20.4c-181.9-63.5-56.1-156.1-56.1-156.1l-0.9,0.4c0,0,126.8-91,131.3,101.9c1.5,68.7-30.2,26.4-30.2,26.4
					C1128,1933.4,1122.7,1928.1,1119.4,1926.3"/>
			</g>
			<g>
				<path d="M1121.9,1982.4c-7.2,0-17.3-2.2-30-6.7c-61.2-21.4-94.6-48.4-99.5-80.5c-6.1-40.5,35.4-74.2,42-79.2l-0.1-0.2
					c1.3-0.9,30.9-21.9,62.5-21.9c31.7,0,70.1,21.8,72.5,125.6c0.4,20.5-1.9,33.1-7.3,38.6c-2,2.1-4.4,3.1-7.2,3.1
					c-9.3,0-18.9-12.4-19.9-13.9c-9-13.2-14.1-17.7-16.6-19.2c-0.8-0.4-1.5-0.5-2-0.1c-0.2,0.2-0.4,0.8-0.2,1.8h0
					c0.7,3.3,3.5,9.7,13.2,21.7c1.2,1.7,10.8,15.9,6.3,24.7C1133.4,1980.4,1128.8,1982.4,1121.9,1982.4z M1037.9,1819.2l0.1,0.1
					c-0.5,0.3-46.9,35.1-40.9,75.3c4.6,30.2,37,56,96.4,76.7c21.4,7.4,35,8.4,37.9,2.9c2.8-5.3-3.4-16.3-5.8-19.7
					c-8.1-10-12.8-17.9-14-23.4h-0.1c-0.6-2.8,0.2-5.3,2.1-6.7c2.1-1.4,4.8-1.5,7.1-0.1c4.4,2.5,10.5,9.4,18.1,20.6
					c2.4,3.2,10.2,11.9,16.1,11.9c1.4,0,2.7-0.6,3.8-1.7c3-3.1,6.5-11.6,5.9-35.2c-1.8-79.2-25.3-121-67.8-121
					C1069.6,1798.7,1042.9,1815.8,1037.9,1819.2z"/>
			</g>
			<g>
				<path class="st0" d="M1222.6,1930.2c0.4-1.7,0-3.6-1.2-4.4c-1.1-0.6-3-0.4-4.7,0.4c-3.1,1.5-8.5,6.6-17.4,19.7
					c0,0-31.4,42.1-30.1-26.5c4.4-192.8,131.4-101.8,131.4-101.8l-0.9-0.7c0,0,125.9,92.6-56.4,156.2
					c-64.6,22.6-34.3-20.3-34.3-20.3C1218.7,1940.5,1222.1,1933.9,1222.6,1930.2"/>
			</g>
			<g>
				<path d="M1214.2,1982.2c-6.8,0-11.3-2-13.4-6c-4.5-8.7,5.2-22.9,6.3-24.5c8.1-10.6,12.5-17.9,13.1-21.8c0.3-1.2-0.1-2-0.2-2.1
					c-0.8,0.1-1.5,0.3-2.2,0.6c-2.1,1-6.9,4.9-16.6,18.9c-1.1,1.5-10.6,13.8-19.8,13.8c-2.8,0-5.2-1-7.2-3.1
					c-5.4-5.5-7.8-18.1-7.4-38.5c2.4-103.8,40.7-125.5,72.5-125.5c28.9,0,56.8,18,61.8,21.3l0,0l0.9,0.7l0,0
					c6.8,5.3,48.2,39.4,41.8,79.5c-5.1,31.9-38.7,58.8-99.7,80.1C1231.5,1979.9,1221.4,1982.2,1214.2,1982.2z M1219.9,1923.1
					c1,0,1.9,0.2,2.7,0.6c2.1,1.6,3,4.3,2.3,7c-0.7,4.6-5.2,12.2-14,23.7c-2.3,3.4-8.7,14.4-5.9,19.6c2.8,5.4,16.3,4.5,37.6-3
					c59.2-20.7,91.7-46.4,96.6-76.4c6.2-38.4-35.6-71.7-40.3-75.3c-3-2.1-30.8-20.7-59.4-20.7c-42.5,0-66,41.8-67.8,121
					c-0.5,23.5,3,32.1,6,35.1c1.1,1.1,2.4,1.7,3.8,1.7c5.8,0,13.5-8.5,16-11.8c7.8-11.3,13.9-18.2,18.3-20.4
					C1217.1,1923.5,1218.5,1923.1,1219.9,1923.1z"/>
			</g>
			<g>
				<path class="st0" d="M1250.7,2029.6c1.7-0.1,3.4-1.1,3.8-2.5c0.7-1.3-0.3-2.8-1.7-4.1c-2.7-2.7-9.1-6.3-24.2-10.5
					c0,0-49.8-17,15.8-36.7c184.9-55.6,137.5,93.4,137.5,93.4l0.2-1.1c0,0-49.1,148.2-165.9-5.2c-41.7-54.4,8.6-39,8.6-39
					C1239.8,2029.2,1247.2,2029.9,1250.7,2029.6L1250.7,2029.6L1250.7,2029.6z"/>
			</g>
			<g>
				<path d="M1312.9,2134.9c-29.7,0-62.9-23.7-98.5-70.5c-14.3-18.7-19.5-31.3-15.9-38.6c2-4.1,6.5-6.2,13.3-6.2
					c6.7,0,13.4,2.1,13.7,2.1c12.5,4.4,19.4,5.5,23,5.6l2.1-0.1c0.9,0,1.6-0.6,1.7-0.8c0.1-0.2,0-0.8-1-1.7c-2.2-2.3-8-5.8-23.3-10
					c-2.2-0.7-20-7.2-19.8-17.9c0.2-8.6,11.8-16.2,35.6-23.3c67.1-20.2,112.4-15.8,133.2,12.7c23.3,31.9,7.9,81.6,7.2,83.7l-0.1,0
					C1381,2078.6,1359.2,2134.8,1312.9,2134.9C1312.9,2134.9,1312.9,2134.9,1312.9,2134.9z M1211.8,2024.3c-4.9,0-7.9,1.2-9.1,3.6
					c-1.5,3.1-1.5,11.5,15.4,33.7c34.7,45.6,66.6,68.7,94.8,68.7c0,0,0,0,0,0c45.7,0,66.8-62.1,67-62.8l0.1,0
					c2.1-7.4,13.2-51-6.8-78.4c-19.5-26.7-63.3-30.4-128.1-11c-27.9,8.4-32.2,15.4-32.2,18.9c-0.1,6.2,12.2,11.8,16.5,13.3
					c12.9,3.6,21.4,7.3,25.1,11.1c3.4,3,2.8,5.6,2.1,6.8c-0.4,1.4-1.8,2.7-3.6,3.4v0.2l-2.1,0.2c-0.5,0.1-1.1,0.1-1.7,0.1
					c-5.6,0-14.1-2-25.2-5.9l0,0C1224.1,2026.1,1217.8,2024.3,1211.8,2024.3z"/>
			</g>
			<g>
				<path d="M1061.1,1851.9c0,0-11.8,8.2-21.9,11.4c-10.2,3-14.6,10.7-15.9,12.6c0,0-5.7,13.4-9.5,7.9c-4-5.3,4-15.4,4-15.4
					c1.2-2,5.8-9.5,15.7-12.9c10.2-3,22-11,22-11s11.4-9,17.5-17.5c6.3-8.7,14.7-10.7,17.1-11c0,0,11.9-4.2,16.1,1
					c3.9,5.4-10.5,6.5-10.5,6.5c-2.5,0.9-10.9,2.7-17.1,11.1C1072.5,1843.2,1061.1,1851.9,1061.1,1851.9"/>
			</g>
			<g>
				<path d="M1275,1851.8c0,0-11.2-8.8-17.2-17.4c-6.2-8.5-14.8-10.4-16.8-11.3c0,0-14.7-1.1-10.7-6.4c4-5.3,16.1-0.9,16.1-0.9
					c2.4,0.3,10.9,2.2,16.9,11c6.1,8.5,17.5,17.6,17.5,17.6s12,7.9,22,11c9.9,3.2,14.4,10.6,15.6,12.5c0,0,8,10.4,4.2,15.8
					c-3.9,5.5-9.4-7.9-9.4-7.9c-1.5-2.1-5.8-9.6-16.1-12.6C1287.2,1859.8,1275,1851.8,1275,1851.8"/>
			</g>
			<g>
				<path d="M1341.6,2055.4c0,0,5.1-13.4,11.2-22.1c6.6-8.2,5.4-17.2,5.3-19.3c0,0-3.2-14.3,3.1-12.1c6.2,2.1,6,14.7,6,14.7
					c0,2.4,1,11.2-5.3,19.8c-6.5,8.4-11.5,22-11.5,22s-3.7,13.9-3.5,24.2c0,10.6-6,17.2-7.3,19.2c0,0-7.5,10.4-13.6,8.6
					c-6.6-2.1,4.7-11.6,4.7-11.6c1.2-1.9,7.2-8.7,6.8-18.9C1337.6,2069.3,1341.6,2055.4,1341.6,2055.4"/>
			</g>
			<g>
				<path d="M1168.4,2180.9c0,0,14.5,0.6,24.3,4c10,3.3,17.9-0.2,20.2-1.1c0,0,12.3-7.5,12.2-0.7c0,6.4-12.2,10.3-12.2,10.3
					c-2.3,0.7-10.2,4.5-20.2,0.9c-9.8-3.4-24.3-4.1-24.3-4.1s-14.7,0.7-24.5,4.1c-10,3.5-17.8-0.2-20.3-0.9c0,0-12.3-4-12.3-10.3
					c-0.1-6.8,12.3,0.7,12.3,0.7c2.5,0.9,10.3,4.4,20.3,1.1C1153.8,2181.5,1168.4,2180.9,1168.4,2180.9"/>
			</g>
			<g>
				<path d="M995.6,2055.4c0,0,4.1,13.9,4,24.5c0,10.6,5.6,17.1,7.2,18.9c0,0,11,9.5,4.8,11.6c-6.3,1.8-13.8-8.6-13.8-8.6
					c-1.5-2-7.2-8.6-7.2-19.2c0.1-10.3-3.8-24.2-3.8-24.2s-4.9-13.6-11.3-22c-6.1-8.5-5.3-17.4-5.3-19.8c0,0,0-12.6,6.2-14.7
					c6.1-2.2,2.8,12.1,2.8,12.1c-0.2,2.1-1,11.1,5.5,19.3C990.8,2042,995.6,2055.4,995.6,2055.4"/>
			</g>
			<g>
				<path class="st3" d="M1167.5,1963.5c-19.3,0-35.1,15.9-35.1,35.3c0,19.9,15.8,35.3,35.1,35.3c19.7,0,35.5-15.4,35.5-35.3
					C1203,1979.3,1187.2,1963.5,1167.5,1963.5"/>
			</g>
			<g>
				<path class="st4" d="M1167.5,2035.1c-20.2,0-36-15.9-36-36.3c0-20,16.2-36.2,36-36.2c20.1,0,36.4,16.3,36.4,36.2
					C1203.9,2019.1,1187.9,2035.1,1167.5,2035.1z M1167.5,1964.4c-18.8,0-34.2,15.4-34.2,34.4c0,19.3,15,34.4,34.2,34.4
					c19.4,0,34.5-15.1,34.5-34.4C1202.1,1979.8,1186.6,1964.4,1167.5,1964.4z"/>
			</g>
			<g>
				<path d="M1234.3,1324.2l4.7,95.3l80.5-52.2l25.4,41.2l-94.9,55v19.8c0,0,110.4,62.1-24.2,59.7v0.8c-47.2,39.2-91.8,0.3-91.8,0.3
					c-134.6,2.3-24.3-59.4-24.3-59.4v-20l-83.9-65.2l19.9-43.2l75,64.2l4.3-95L1234.3,1324.2z"/>
			</g>
			<g>
				<path class="st5" d="M1334.6,1405.9c77.9,89.3,135.3-4.7,135.3-4.7c98.5-24,40-93.7,40-93.7c102.7-67.4-18-120.2-18-120.2
					c-0.8-89.6-77-82.9-77-82.9c-79.6-69.6-155.6,7.7-155.6,7.7c-119.4-99.4-209.9,15.2-209.9,15.2s-76.3-52.8-110.5,30
					c0,0-121.4-3.3-76.1,119.2c0,0-93.9,93.9,28.6,140.2c0,0,65.2,120.6,154.7,5.8c0,0,55,3.2,46.3-74.2c0,0,69.8,28.9,135.7-3.3
					c0,0,21.1,47.5,66.5,20.9c0,0-7.1,30.6,36.8,36.7L1334.6,1405.9z"/>
			</g>
			<g>
				<path d="M968.4,1481.6c-45.9,0-76.1-44.6-83.7-57.2c-37.1-14.7-58.8-35.6-64.5-62.1c-8.3-38.3,20.3-75.4,31.5-88.1
					c-12.9-37.8-11.6-68.3,3.9-90.5c20.9-30,60.7-35.1,76.8-35.9c18.1-38.4,45.5-46.7,65.8-46.7c20.6,0,39.2,8.4,49.1,13.8
					c14.4-15.4,55.5-53,113.2-53c33.2,0,66.3,12.6,98.3,37.5c13.2-11.1,44.9-33.7,85.1-33.7c26.3,0,51.3,9.7,74.3,28.9
					c0,0,0.1,0,0.1,0c13.4,0,79.2,4.2,83,86.5c15.3,7.8,56.4,31.8,59.4,66.9c1.8,21.5-10.8,42.3-37.4,61.8
					c7.5,11.8,18.2,34.1,11,56.3c-6.7,20.3-26.3,34.9-58.5,43.4c-7.7,11-34.2,44.4-73.6,44.4c0,0,0,0,0,0
					c-25.5,0-50.7-14.1-74.9-41.8l-0.5-0.5c-16.7-2.9-28.8-9.6-35.8-19.9c-2.6-3.8-4.2-7.7-5.2-11.2c-6,2-11.8,3.1-17.5,3.1
					c-23,0-37.3-16-44.2-26.3c-19.8,8.3-41.6,12.5-64.9,12.5c-23.6,0-43.7-4.3-56.3-7.9c0.3,22.5-5,40.1-16.1,52.5
					c-12.3,13.7-27.9,16.9-36.1,17.5C1024.1,1464.9,996.4,1481.6,968.4,1481.6z M938.5,1166.9c-5.7,0-48.3,0.9-67,27.8
					c-12.4,17.9-12.3,44.3,0.3,78.4l2.1,5.8l-4.3,4.4c-0.4,0.4-38.3,39-30.5,75.1c4.4,20.4,23.2,37,55.7,49.3l3.4,1.3l1.7,3.2
					c0.3,0.5,27.8,50.3,68.6,50.3c22.7,0,46.3-15.4,70-45.8l3.1-4l5.1,0.3h0c3,0,16.3-0.6,25.9-11.3c9.5-10.7,13-28.2,10.3-52.2
					l-1.8-16.2l15.1,6.2c0.3,0.1,27.7,11.2,63.2,11.2c23.5,0,45.3-4.8,64.6-14.2l8.9-4.4l4.1,9.1c0.1,0.2,10.8,23.3,31.4,23.3
					c6.6,0,13.8-2.3,21.4-6.7l19.3-11.3l-5.1,21.8c0,0.1-1.3,6.8,3.1,13c4.3,6.1,13.2,10.2,25.7,12l3.2,0.4l5.6,5.5
					c20.9,23.9,41.2,35.7,60.9,35.7c0,0,0,0,0,0c35.2,0,59.1-38.2,59.4-38.6l2.1-3.4l3.9-1c27.4-6.7,43.7-17.3,48.4-31.6
					c7.1-21.4-13.3-46.3-13.5-46.6l-6.9-8.3l9-5.9c25.8-17,38.3-33.7,36.9-49.7c-2.1-25.6-39.4-47.3-53.5-53.6l-5.7-2.5l-0.1-6.2
					c-0.6-66.3-44.8-73.4-63.8-73.4l-6.8,0.4l-3.1-2.7c-20.2-17.7-42-26.7-64.6-26.7c-44,0-77.5,33.5-77.8,33.9l-6.2,6.3l-6.8-5.7
					c-30.5-25.4-61.7-38.3-92.5-38.3c-61.5,0-103.3,51.6-103.7,52.1l-5.6,7l-7.4-5.1c-0.2-0.2-22-14.9-45.6-14.9
					c-22.4,0-39.4,13.7-50.6,40.6l-2.5,6.1L938.5,1166.9C938.6,1166.9,938.6,1166.9,938.5,1166.9z"/>
			</g>
			<g>
				<path class="st3" d="M290.4,2174.6l5.8,5c-20,36.2-22.8,61.8-8.9,73.8c10.1,8.8,23.4,5.2,35.5-8.5c5.2-5.9,8.5-12.7,8.5-18
					c0-7.6-5.6-16-11.9-28.9c-12-24.5-11.5-44.2,9.9-68.9c21.4-24.4,49.4-32.6,67.1-17.3c7.7,6.9,11.7,16.5,12.5,29.1l13.8-4.3
					l4.8,4.3l-42.7,51.9l-5.1-5c16.7-34.7,20.4-55.4,7.8-66c-9.6-8.7-22.2-5.7-33.2,7.1c-14,16-5.9,25.4,4.8,45.2
					c5.5,11,9.9,19.5,7.7,32.6c-2.1,11.6-9.1,25.1-20.3,38.2c-23.3,26.5-49.9,34.4-68.7,18.1c-9.3-8.4-13.6-18.1-13-33.2l-16.9,5.6
					l-4.9-4.3L290.4,2174.6z"/>
			</g>
			<g>
				<path class="st3" d="M450.6,2192.4c19.5-9.2,35.6-8.8,50.1,1c14.6,10.3,20.7,24.9,18.6,47.4c-1.7,19.6-10.9,42.1-26.4,64.5
					c-15.5,22.3-30.6,36.6-49.8,45.7c-20.6,9.5-38.2,9.6-51.9,0c-14.1-9.8-19.9-24.9-18-47.9c1.8-21.8,9.9-41.1,25.6-63.4
					C414.4,2216.9,432.4,2200.8,450.6,2192.4 M398.8,2339.4c15.1,10.4,37.7-6.9,69.1-51.7c31.4-45.2,39.7-72.1,24.5-82.9
					c-15-10.3-37.3,6.9-68.8,52.1C392.3,2301.8,383.6,2328.8,398.8,2339.4"/>
			</g>
			<g>
				<path class="st3" d="M608,2280l-6.7-3.6c-5.9-3.1-8.3-0.7-13.1,8.2l-43.5,81.5c-15.7,29.3-16.3,46.7,0.5,55.4
					c7.6,4,15.6,3.6,22.6,0c11.2-6.2,18.7-18.9,29.4-39.1l31.5-58.8c9-17.1,10.9-26.9-0.6-32.8c-0.1-0.1-0.7-0.4-0.8-0.5l6.1-11.8
					l37,19.9l-6.2,11.5c-11.6-4.2-17.6,1.8-26.6,18.6l-32.4,60.6c-9.4,17.6-16.7,30.8-27.6,40.1c-16.1,13.6-31.9,15.4-49.1,5.8
					c-26.5-13.9-29.9-39.4-11.1-75.2l47-87.8c4.8-9.1,5.1-12.5-0.6-15.5l-6.7-3.6l6-11.7l51.2,27.3L608,2280z"/>
			</g>
			<g>
				<path class="st3" d="M750.1,2343.4c-5.2-1.9-7.8,0.3-11.5,9.4l-48.3,122.4c-3.9,9.3-3.9,12.7,2.1,15.2l7.2,2.9l-4.9,12.4
					l-53.7-21.3l4.9-12.6l7.1,2.9c6.1,2.5,8.1,0,12-9.5l48.7-122.2c3.5-9.2,3.5-12.4-1.5-14.4c-11.1-4.7-27.7,10.8-43.8,43.6
					l-7.3-2.5l27.7-63.3l93.2,36.9l-23.3,64.9l-6.8-2.5C762.7,2370.6,761.2,2347.8,750.1,2343.4"/>
			</g>
			<g>
				<path class="st3" d="M830.3,2534c6.2,1.9,8-0.8,10.6-10.7l15.6-57.7l-38.9-10.5l-15.4,57.6c-2.7,9.8-2.4,12.9,3.8,14.7l7.5,2.2
					l-3.7,12.8l-55.8-15l3.5-12.9l7.4,1.8c6.2,1.9,8.1-0.8,10.7-10.6l33.8-125.2c2.8-9.9,2.7-13.4-3.8-15.2l-7.4-1.9l3.6-12.8
					l55.7,15.2l-3.4,12.8l-7.3-2.1c-6.3-1.8-8.1,1.2-11.1,11l-13.8,52l39.1,10.4l13.8-52c2.8-9.7,2.6-13.3-3.8-15.1l-7.3-2l3.3-12.7
					l55.8,15.3l-3.3,12.6l-7.6-2.1c-6.2-1.6-8,1.3-10.8,11.1l-33.7,125.3c-2.7,9.9-2.5,13.1,3.9,14.6l7.2,2.3l-3.3,12.6l-56.2-15
					l3.8-13.1L830.3,2534z"/>
			</g>
			<g>
				<path class="st3" d="M978,2563.8l7.6,0.5c3.2,0.2,4.5-1.5,5.1-5.2c0.1-1.9,0.1-4.2,0-7.2l-2.7-29.2l-38.5-5.6l-5.5,12.8
					c-1.7,4.1-3.1,9.1-3.5,12.5c-1.8,11.4,2.3,15.6,13.4,18.1l-1.9,12.9l-42.8-6.4l2-13c9.6-1.1,16-11.5,24.2-30.8l55.6-132
					l11.2,1.7l17.9,166.2c0.8,7.8,2.8,11,8.4,12l-2,13.2l-50.6-7.5L978,2563.8z M956,2501.9l30.7,4.7l-6-63.2L956,2501.9z"/>
			</g>
			<g>
				<path class="st3" d="M1090.4,2543.1c-0.7,23.5,2.3,32.2,16.5,33l-0.3,13.5l-43.8-1.3l0.1-13.5c13.7-0.5,16.4-9.1,17-32l2.7-110
					c0.3-9.7-0.7-13.6-7.3-13.9l-7.9-0.2l0.6-13.2l49.1,1.3l21.3,110l24.9-108.9l48.4,1.2l-0.5,13.4l-7.6-0.4
					c-6.4-0.1-7.7,3.1-7.9,13.2l-3.1,129.8c-0.3,10.2,0.8,13.4,7.2,13.4l7.8,0.2l-0.3,13.4l-56.8-1.3l0.5-13.3l6.6,0.1
					c6.4,0.1,7.9-2.9,8.2-13l3.5-137.1l-37.3,162.9l-7.5-0.1l-31.1-163.6L1090.4,2543.1z"/>
			</g>
			<g>
				<path class="st3" d="M1296.6,2571.2l9.7-0.9l1.3,13.2l-60,6.1l-1.3-13.5l8.2-0.8c6.6-0.7,7.2-3.7,6.3-13.9l-12.5-129
					c-0.8-10.1-2.2-13.2-8.8-12.8l-8.1,0.9l-1.4-13.2l66.5-6.4c27.8-2.7,43.6,13.8,46.8,47.6c3.6,36.1-11.4,54.1-45.2,57.4
					c-4.6,0.6-9.4,0.8-15.3,1.1l5.2,51.9C1289.1,2569.4,1290.6,2571.7,1296.6,2571.2 M1281.8,2492.8c1.7,0.4,4.1,0.4,7.4,0
					c20.7-1.9,28.1-11,25.1-41.2c-2.7-29.4-10.6-38.2-28.4-36.5c-9.7,1-11.2,3-10.2,17L1281.8,2492.8z"/>
			</g>
			<g>
				<path class="st3" d="M1431.7,2390.9c-5.3,1.1-6,4.1-3.9,13.8l26.5,129.1c2.1,9.9,3.8,12.5,10.3,11.2l7.4-1.4l2.6,13.3
					l-56.4,11.6l-2.8-13l7.5-1.7c6.4-1.2,6.9-4.6,5-14.6l-26.7-128.8c-2-9.6-3.8-12.4-9.2-11.3c-11.8,2.5-17.2,24.6-12.6,60.9
					l-7.3,1.4l-11.6-67.8l97.9-20.5l16.5,67.1l-7.3,1.4C1457.2,2406.7,1443.7,2388.2,1431.7,2390.9"/>
			</g>
			<g>
				<path class="st3" d="M1503.2,2384.6c4.5-20.8,14.6-33.9,31.3-39.1c16.9-5.7,32.5-1.5,49.1,13.5c14.8,13.4,26.8,34.2,35.4,60
					c8.6,25.8,10.5,46.6,6.4,67.4c-4.6,22.2-15.2,36.2-31.4,41.4c-16.4,5.4-31.8,0.8-48.8-14.7c-16.2-14.4-26.6-32.5-35.1-58.5
					C1501.4,2428.5,1499.2,2404.3,1503.2,2384.6 M1589.6,2514.4c17.5-5.5,17.5-34,0.4-86c-17.1-52.4-33.4-75.4-51.2-69.5
					c-17.2,5.6-17.2,33.9-0.2,86.1C1555.8,2497.2,1572.2,2520.3,1589.6,2514.4"/>
			</g>
			<g>
				<path class="st3" d="M1681.5,2478.5c11.7-7.6,10.1-16.2,0.8-36.3l-46.4-99.9l-4.8-3.4c-4.8-3.6-8.3-6-13.9-3.2l-1.7,0.8
					l-5.7-11.8l34.9-16.2l100.6,79l-28.9-62.1c-10.3-22.3-16.2-27.9-30-21.6l-5.5-12.3l40.4-18.7l5.6,12
					c-11.3,6.4-10.4,14.7-0.5,36.1l59,126.8l-8.7,4.1l-124.4-98.2l38.9,84.6c9.8,21.3,16.6,27.5,29.8,22.1l5.8,11.9l-39.7,18.5
					L1681.5,2478.5z"/>
			</g>
			<g>
				<path class="st3" d="M1910.9,2230l-6.1,4.4c-26.8-29-43.1-34-62.2-20.9c-7.3,5-8.7,7.1-1.5,17.8l30.5,44.6
					c0.6-0.3,1.4-0.7,1.9-1.2c11.3-7.7,10.1-19.1-2.1-41.3l6.1-4.3l47.5,69.4l-6.3,4.4c-16.2-19.8-26.3-24.4-37.4-17
					c-0.6,0.4-1.2,0.9-1.7,1.3l34.3,50.4c5.8,8.4,8.3,10.3,13.7,6.6l9-6.2l7.5,11.1l-50.4,34.4l-7.4-11.1l6.4-4.4
					c5.6-3.5,4.6-6.8-1-15.1l-73.2-107.2c-5.7-8.5-8.6-10.4-13.8-6.7l-6.6,4.3l-7.4-10.8l82-56.1L1910.9,2230z"/>
			</g>
			<g>
				<path class="st3" d="M2058.3,2267.3c-10,8.5-22.7,11.2-37.5,8.4c-22.7-4.4-46.1-20.3-67.6-45.5c-16.8-19.4-27.6-40-32-59.8
					c-5-22.1-0.4-38.3,13.1-49.9c8.4-7.3,18.1-9.7,30.8-7.6l-2.2-15.4l4.9-4.2l49.7,54.5l-5.3,6c-32.2-27.5-55.3-35.8-68-24.9
					c-15.3,13.3-5,38.1,31.2,80.3c36.4,42.8,58.6,56.2,75.7,41.6c12.8-11.1,10.1-32.8-8.9-64l9.2-1.9
					C2075.8,2221.6,2078,2250.6,2058.3,2267.3"/>
			</g>
			<g>
				<path class="st0" d="M105.2,728.1l29,59.9l-81.4,22.3l25.4,50.6l81.5-22.3l25.5,50.7l-81.7,22.2l25.2,50.4l81.8-22l25.8,50.7
					l-82.3,21.9l25.6,50.4l82-21.7l36.5,70.2c15.4-4.3,30.6-9.6,45.1-15.7l-190.8-381C138.8,720.5,123,725.1,105.2,728.1"/>
			</g>
			<g>
				<path class="st0" d="M329.2,749.2c-5.7-27,55.7-59.3,105-99L369,519.6c-25.8,14.1-54.5,36.2-83.1,68.3
					c-7.7,7.9-14.4,16.2-20.9,24.4L329.2,749.2z"/>
			</g>
			<g>
				<path class="st1" d="M475.6,516.9c-15.9-21.6-56.6-24.5-106.6,2.7l65.2,130.6C479.5,613.3,514.4,569.6,475.6,516.9"/>
			</g>
			<g>
				<path class="st1" d="M152.6,714.6l190.8,381c53.5-22.2,97.6-53.5,112.5-76.7l-82.2-174.8L333,757.3c-2.2-2.7-3.2-5.2-3.8-8.1
					l-64.2-136.8C232.9,652.3,205.2,692.1,152.6,714.6"/>
			</g>
			<g>
				<path class="st1" d="M105.2,728.1c-25.7,4.4-55.6,5.5-92.2,2.5l39.8,79.6l81.4-22.3L105.2,728.1z"/>
			</g>
			<g>
				<polygon class="st1" points="159.8,838.6 78.3,860.9 103.6,911.4 185.3,889.3 				"/>
			</g>
			<g>
				<polygon class="st1" points="210.6,939.8 128.8,961.8 154.1,1012.4 236.4,990.5 				"/>
			</g>
			<g>
				<path class="st1" d="M179.7,1062.8l29.8,60.1c28.7,1.6,59.1-3.2,88.8-11.6l-36.6-70.2L179.7,1062.8z"/>
			</g>
			<g>
				<path class="st0" d="M433.1,651.2l36.2,72.4c25.8-21.7,53.3-47.5,82.6-72L484,530.3C508.5,577.5,475.1,617.1,433.1,651.2"/>
			</g>
			<g>
				<path class="st1" d="M333,757.3c1.8,2.8,4.6,5.2,8.3,7.7c36.5,25.8,79.4-0.5,128-41.3l-36.1-72.4
					C379.1,694.7,310.7,728.8,333,757.3"/>
			</g>
			<g>
				<path d="M220.3,1130.8C220.3,1130.8,220.3,1130.8,220.3,1130.8c-3.8,0-7.5-0.1-11.2-0.3l-4.5-0.2L0,721.8l13.7,1.2
					c13.5,1.1,26.6,1.7,38.7,1.7c113.7,0,152-48.2,196.3-104c9.9-12.5,20.2-25.4,31.5-37.9c51-56.8,108.8-90.7,154.6-90.7
					c20.7,0,37.3,7.2,46.9,20.2c14.8,20.1,20.7,40.7,17.4,61.2c-7.3,46.3-58.2,82.7-103.1,114.8c-28.2,20.2-57.4,41.1-59.6,55.7
					c-0.4,3,0.3,5.7,2.5,8.5l125.6,266.6l-2.3,3.6C435.5,1065.2,319.5,1130.8,220.3,1130.8z M214.3,1115.3c2,0.1,4,0.1,6,0.1h0
					c94.1,0,199.9-61.5,226.7-97.6L326,760.5c-3.9-4.7-5.8-11.5-4.8-18.7c3.1-21.1,30.8-40.9,65.8-66
					c42.4-30.3,90.5-64.8,96.8-104.6c2.6-16.5-2.2-32.8-14.6-49.7c-6.6-9-18.8-13.9-34.5-13.9c-41.5,0-95,32-143.2,85.6
					c-11,12.1-21.1,24.8-30.9,37.1c-44.9,56.5-87.2,109.8-208.4,109.9c-8.5,0-17.3-0.3-26.4-0.8L214.3,1115.3z"/>
			</g>
			<g>
				<path d="M372.9,782.8c-12.9,0-25-3.9-36-11.6c-4.5-3-7.9-6.1-10.2-9.6c-4.5-5.7-6.4-12.5-5.3-19.7c3.1-21.1,30.8-40.9,65.8-66
					c56-40.1,119.4-85.5,90-141.9l13.5-7.3l71,126.8l-4.9,4.1c-14.8,12.5-29.2,25.3-43.2,37.7C460.8,742.2,415.1,782.8,372.9,782.8z
					 M499.4,573.6c-7.2,45.9-59.3,83.3-103.3,114.8c-28.2,20.2-57.4,41.1-59.5,55.7c-0.4,3,0.3,5.6,2.5,8.5c1.5,2.2,3.5,4,6.5,6
					c8.6,6.1,17.5,8.9,27.3,8.9c36.4,0,82.1-40.7,130.5-83.8c12.5-11.2,25.4-22.6,38.6-33.9L499.4,573.6z"/>
			</g>
			<g>
				<path class="st0" d="M2215.5,728.1l-29.1,59.9l81.1,22.3l-25.2,50.6l-81.7-22.3l-25.4,50.7l81.7,22.2l-25.1,50.4l-81.8-22
					l-25.6,50.7l82,21.9l-25.5,50.4L2059,1041l-36.5,70.2c-15.4-4.3-30.7-9.6-45.2-15.7l190.9-381
					C2182.1,720.5,2197.4,725.1,2215.5,728.1"/>
			</g>
			<g>
				<path class="st0" d="M1991.4,749.2c5.7-27-55.7-59.3-105-99l65.4-130.6c25.8,14.1,54.3,36.2,83.4,68.3
					c7.3,7.9,13.9,16.2,20.6,24.4L1991.4,749.2z"/>
			</g>
			<g>
				<path class="st1" d="M1845,516.9c15.9-21.6,56.6-24.5,106.7,2.7l-65.3,130.6C1841.1,613.3,1806.2,569.6,1845,516.9"/>
			</g>
			<g>
				<path class="st1" d="M2168.1,714.6l-190.9,381c-53.3-22.2-97.5-53.5-112.5-76.7l82.1-174.8l40.8-86.8c2.2-2.7,3.2-5.2,3.7-8.1
					l64.3-136.8C2088,652.3,2115.5,692.1,2168.1,714.6"/>
			</g>
			<g>
				<path class="st1" d="M2215.5,728.1c25.5,4.4,55.7,5.5,92.2,2.5l-40.2,79.6l-81.1-22.3L2215.5,728.1z"/>
			</g>
			<g>
				<polygon class="st1" points="2160.7,838.6 2242.4,860.9 2217,911.4 2135.4,889.3 				"/>
			</g>
			<g>
				<polygon class="st1" points="2110.1,939.8 2191.9,961.8 2166.5,1012.4 2084.5,990.5 				"/>
			</g>
			<g>
				<path class="st1" d="M2141,1062.8l-29.9,60.1c-28.7,1.6-59.2-3.2-88.6-11.6l36.5-70.2L2141,1062.8z"/>
			</g>
			<g>
				<path class="st0" d="M1887.5,651.2l-36.2,72.4c-25.6-21.7-53.3-47.5-82.3-72l67.7-121.2C1812.1,577.5,1845.6,617.1,1887.5,651.2
					"/>
			</g>
			<g>
				<path class="st1" d="M1987.7,757.3c-2,2.8-4.9,5.2-8.2,7.7c-36.8,25.8-79.4-0.5-128.2-41.3l36.2-72.4
					C1941.5,694.7,2009.7,728.8,1987.7,757.3"/>
			</g>
			<g>
				<path d="M2100.3,1130.8c-98.9,0-215.1-65.6-242.2-108.1l-2.3-3.6L1980.7,754c3.1-4.3,3.9-6.9,3.4-9.9
					c-2.1-14.7-31.3-35.5-59.6-55.8c-44.9-32.1-95.7-68.5-103.1-114.8c-3.3-20.5,2.6-41.1,17.3-61.2c9.6-13,26.3-20.2,47-20.2
					c45.8,0,103.8,33.9,154.9,90.7c11.2,12.4,21.4,25.3,31.3,37.7c44.3,55.9,82.5,104.2,196.4,104.2c12.2,0,25.2-0.6,38.8-1.7
					l13.7-1.2L2116,1130.3l-4.5,0.2C2107.8,1130.7,2104,1130.8,2100.3,1130.8z M1873.5,1017.9c27.6,36.8,137.1,100,232.8,97.5
					l188.6-376c-9.1,0.5-18,0.8-26.5,0.8c-121.3,0-163.6-53.4-208.4-110c-9.7-12.2-19.7-24.9-30.6-37
					c-48.3-53.6-101.9-85.6-143.5-85.6c-15.7,0-28,5-34.7,13.9c-12.4,16.9-17.2,33.1-14.5,49.7c6.4,39.9,54.4,74.3,96.9,104.7
					c35.1,25.1,62.8,44.9,65.9,66c1.1,7.2-0.8,14-5.6,20.2L1873.5,1017.9z"/>
			</g>
			<g>
				<path d="M1947.9,782.8L1947.9,782.8c-42.4,0-88.1-40.7-141-87.8c-13.9-12.4-28.2-25.1-42.9-37.5l-4.9-4.1l70.8-126.8l13.5,7.3
					c-29.3,56.4,34.1,101.8,90.1,141.9c35.1,25.1,62.8,44.9,65.8,66.1c1.1,7.2-0.8,14-5.6,20.1c-2.7,3.7-6.6,6.8-9.6,9.1
					C1972.9,778.9,1960.8,782.8,1947.9,782.8z M1778.8,649.8c13.1,11.2,25.9,22.6,38.4,33.7c48.4,43.2,94.2,83.9,130.7,83.9h0
					c9.8,0,18.7-2.9,27.2-8.8c3.1-2.3,5.1-4.1,6.4-5.9c2.4-3,3.1-5.7,2.7-8.7c-2.1-14.6-31.3-35.5-59.6-55.7
					c-43.9-31.5-96-68.8-103.3-114.7L1778.8,649.8z"/>
			</g>
			<g>
				<path class="st0" d="M1405.9,638.5c-17.7,14.1-48.2,34.6-82.1,55.3v271.2c38.3-23.2,77.3-48.2,114.1-68.1V615.7
					C1425.2,624.2,1414,632,1405.9,638.5"/>
			</g>
			<g>
				<path class="st0" d="M1588.7,564.9c-1.6,0-3.2,0.4-4.8,0.4l-38.8,293.1c1.6-0.1,3.2-0.4,4.8-0.4c31.8,0,61.2,10.7,89,26.3
					l86.8-266.3C1683.1,587.5,1637.5,564.9,1588.7,564.9"/>
			</g>
			<g>
				<path class="st0" d="M1979.5,764.9c-36.4,25.4-78.9,0-127-40.3l-113,235.9c45.9,39.8,86.8,72.6,125.1,58.1l123.1-261.4
					C1985.7,760,1982.8,762.4,1979.5,764.9"/>
			</g>
			<g>
				<path class="st0" d="M341.3,764.9c-3.7-2.5-6.4-4.9-8.3-7.7l122.9,261.4c38.7,14.5,79.4-18.3,125.3-58.1L468.1,724.6
					C419.8,764.9,377.6,790.4,341.3,764.9"/>
			</g>
			<g>
				<path class="st0" d="M1160.4,764.3c-11.3,0-26.4-3.9-43.4-10v272.9c15.7,5.5,30.3,8.8,43.4,8.8c13,0,27.6-3.3,43.2-8.8V754.3
					C1186.8,760.4,1171.6,764.3,1160.4,764.3"/>
			</g>
			<g>
				<path class="st0" d="M731.9,564.9c-48.7,0-94.3,22.7-136.8,53.1l86.9,266.3c27.5-15.7,57-26.3,88.9-26.3c1.5,0,3.1,0.4,4.6,0.4
					l-38.6-293.1C735.1,565.2,733.6,564.9,731.9,564.9"/>
			</g>
			<g>
				<path class="st0" d="M914.8,638.5c-8.2-6.5-18.9-14.3-31.9-22.8V897c37,19.9,75.9,44.8,114,68.1V693.8
					C962.8,673.2,932.3,652.6,914.8,638.5"/>
			</g>
			<g>
				<path class="st1" d="M996.9,693.8v271.2c42.8,26.1,84.4,50.1,120,62.2V754.3C1081.4,741.5,1036.5,717.8,996.9,693.8"/>
			</g>
			<g>
				<path class="st1" d="M736.7,565.2l38.7,293.1c30.3,1.4,67.4,17,107.5,38.6V615.8C846.1,592.5,793.1,566.8,736.7,565.2"/>
			</g>
			<g>
				<path class="st1" d="M468.1,724.6l113.2,235.9c30.8-26.6,63.9-55.9,100.7-76.3L595,617.9C549,650.7,506.7,692.4,468.1,724.6"/>
			</g>
			<g>
				<path class="st1" d="M1203.6,754.3v272.9c35.7-12.2,77.3-36.1,120.2-62.2V693.8C1284.1,717.8,1239.4,741.5,1203.6,754.3"/>
			</g>
			<g>
				<path class="st1" d="M1437.9,615.8V897c40-21.6,77.1-37.2,107.3-38.6l38.7-293.1C1527.5,566.8,1474.7,592.5,1437.9,615.8"/>
			</g>
			<g>
				<path class="st1" d="M1725.8,617.9l-86.8,266.3c36.5,20.4,69.7,49.7,100.6,76.3l113-235.9C1814,692.4,1771.8,650.7,1725.8,617.9
					"/>
			</g>
			<g>
				<path d="M1160.4,1043.7c-50.5,0-120.3-43-194.1-88.5c-71.5-44.1-145.4-89.7-195.4-89.7c-68,0-126.2,50.3-177.5,94.7
					c-43.2,37.3-80.5,69.6-118.2,69.6c-7.5,0-14.9-1.3-22-4l-2.9-1.1L326,760.5l13.4-7.6c1.2,1.8,3.2,3.5,6.2,5.6
					c8.6,6.1,17.5,9,27.4,9c36.3,0,81.8-40.6,130.1-83.5c66.7-59.4,142.3-126.8,228.9-126.8c78.9,0,151.4,47.2,187.6,75.3
					c46.2,36.9,188.7,124.1,240.8,124.1c52.7,0,193-86.2,240.7-124.1c36.4-28.2,108.9-75.3,187.7-75.3
					c86.7,0,162.4,67.4,229.1,126.8c48.2,42.9,93.7,83.5,130,83.5c0,0,0,0,0,0c9.8,0,18.7-2.9,27.2-8.9c3-2.2,5-4.1,6.3-5.9
					l13.2,7.8l-124.4,264.2l-2.9,1.1c-7,2.7-14.4,4-21.9,4c-37.6,0-74.9-32.2-118-69.5c-51.3-44.4-109.4-94.7-177.4-94.7
					c-50.1,0-124,45.6-195.4,89.6C1280.8,1000.7,1211,1043.7,1160.4,1043.7z M770.8,850.2c54.4,0,130.2,46.7,203.5,91.9
					c68.8,42.4,139.8,86.2,186,86.2c46.3,0,117.4-43.9,186.1-86.2c73.3-45.2,149-91.9,203.5-91.9c73.7,0,134.2,52.3,187.5,98.5
					c44.9,38.8,87.2,74.3,121.5,63.7l109.8-233.2c-6.7,2.5-13.7,3.7-20.9,3.7h0c-42.2,0-87.6-40.5-140.2-87.4
					c-64.7-57.6-138-123-218.9-123c-74.2,0-143.4,45.2-178.2,72.1c-46.4,36.9-191.7,127.3-250.2,127.3c-58.9,0-204-90.4-250.4-127.4
					c-27.8-21.6-101-72-178.1-72c-80.7,0-154,65.3-218.7,122.9c-52.7,46.9-98.1,87.4-140.3,87.4c-7.3,0-14.4-1.3-21.2-3.8
					l109.7,233.3c34.7,10.6,76.9-25,121.8-63.8C636.6,902.5,697.1,850.2,770.8,850.2z"/>
			</g>
			<g>
				<path d="M1164.6,497.5c253.6,0,459.2-111.5,459.2-248.7C1623.8,111.4,1418.2,0,1164.6,0C911.1,0,705.2,111.4,705.2,248.8
					C705.2,386,911.1,497.5,1164.6,497.5"/>
			</g>
			<g>
				<path class="st3" d="M1165.1,457.1c225.4,0,408.3-93.2,408.3-208.3c0-115.2-182.9-208.3-408.3-208.3
					c-225.8,0-408.3,93.1-408.3,208.3C756.8,363.9,939.3,457.1,1165.1,457.1"/>
			</g>
			<g>
				<path class="st6" d="M1165.1,457.1c225.4,0,408.3-93.2,408.3-208.3c0-115.2-182.9-208.3-408.3-208.3
					c-225.8,0-408.3,93.1-408.3,208.3C756.8,363.9,939.3,457.1,1165.1,457.1z"/>
			</g>
			<g>
				<path class="st0" d="M1165.4,407.2c183.5,0,332.5-59.6,332.5-133c0-73.3-149.1-132.8-332.5-132.8
					c-183.6,0-332.5,59.5-332.5,132.8C833,347.6,981.8,407.2,1165.4,407.2"/>
			</g>
			<g>
				<path d="M1165.4,422.6c-195.1,0-347.9-65.2-347.9-148.5c0-83.1,152.8-148.2,347.9-148.2c195.1,0,347.9,65.1,347.9,148.2
					C1513.4,357.4,1360.5,422.6,1165.4,422.6z M1165.4,156.8c-186.8,0-317.1,61.9-317.1,117.4c0,55.6,130.2,117.6,317.1,117.6
					c186.9,0,317.1-62,317.1-117.6C1482.5,218.7,1352.3,156.8,1165.4,156.8z"/>
			</g>
			<g>
				<path class="st0" d="M1164.3,179.6c-176.8,0-319.8,143.5-319.8,320c0,176.9,143,320,319.8,320h-4c176.5,0,319.9-143.1,319.9-320
					c0-176.5-143.3-320-319.9-320L1164.3,179.6L1164.3,179.6z"/>
			</g>
			<g>
				<path d="M1164.3,827.2l-4,0c-178.6-2.1-323.5-148.7-323.5-327.6c0-179,145-325.5,323.6-327.7v0l4,0
					c178.6,2.2,323.6,148.7,323.6,327.7C1487.9,678.5,1342.9,825.1,1164.3,827.2L1164.3,827.2L1164.3,827.2z M1162.3,187.3
					c-170.9,1-310.1,141.1-310.1,312.3c0,171.2,139.1,311.2,310.2,312.3c171-1,310.2-141.1,310.2-312.3
					C1472.5,328.4,1333.3,188.3,1162.3,187.3z"/>
			</g>
			<g>
				<path d="M1111.1,764.1l-65.8-111.8l-120.6-19.7L894.4,671c1.4,2,2.1,3.9,3.5,5.8l5.2,7.5c40.4,56.9,98.6,100.2,166.9,121.2
					l12.3,2.3L1111.1,764.1z"/>
			</g>
			<g>
				<polygon points="1028.7,455.3 1080.5,614.9 1162.3,614.9 1244.1,614.9 1295.8,455.3 1162.1,358.5 				"/>
			</g>
			<g>
				<path d="M1162.1,293.8v-0.2l99.5-65.1v-32.2c-31.1-10.5-64.5-16.4-99.3-16.7c-34.6,0.3-67.9,6.2-99.3,16.7v32.2L1162.1,293.8z"
					/>
			</g>
			<g>
				<path d="M977.7,404.6l3.5-126.9l-25.8-20c-13.6,11.5-26.2,24.2-37.4,37.9l-1.4,1.4c-36.4,44.5-60.7,99-69,158.8l28.5,12.5
					L977.7,404.6z"/>
			</g>
			<g>
				<path d="M1279.6,652.3l-65.8,111.8l28.5,43.7l11.9-2.2c69.3-21.2,128.9-65.7,169.3-124l2.6-3.9c1.5-2.3,2.8-4.8,4.2-6.7
					l-30.5-38.3L1279.6,652.3z"/>
			</g>
			<g>
				<path d="M1347,404.6l101.4,63.6l28.5-12.5c-8.2-60-32.8-114.8-69.5-159.5l-0.3,0c-11.2-14-24.2-26.8-37.9-38.5l-25.8,20
					L1347,404.6z"/>
			</g>
		</g>
		<g>
			<path d="M1815.7,816.7v1263.7c0,36.5-23.2,68.1-55.5,80.2l-586.8,227.5l-586.9-227.5c-32.3-12.1-55.6-43.7-55.6-80.2l0-1263.7
				H1815.7z"/>
		</g>
		<g>
			<polygon class="st0" points="561.4,1792.3 561.4,1013.5 1784.8,1013.5 1785,1792.3 			"/>
		</g>
		<g>
			<path class="st1" d="M1785,1719.2c-10.7,17.2-37.1,29.3-67.8,29.3c-31,0-57.6-12.1-68.1-29.5c-10.9,17.4-37.3,29.5-68.2,29.5
				c-31,0-57.2-12.1-68-29.3c-10.9,17.2-37.1,29.3-67.9,29.3c-31,0-57.2-12.1-68.1-29.5h-0.3c-10.6,17.4-37,29.5-67.8,29.5
				c-30.9,0-57.1-12.1-67.8-29.3c-10.9,17.2-37.5,29.3-68.1,29.3c-31,0-57.3-12.1-68-29.5h0.2c-11,17.4-37.2,29.5-67.9,29.5
				c-31,0-57.4-12.1-68.2-29.3c-10.8,17.2-37.3,29.3-68.1,29.3c-30.7,0-57.1-12.1-67.9-29.5h-0.3c-10.6,17.4-37.1,29.5-67.7,29.5
				c-31.1,0-57.3-12.1-68.2-29.3v0.5c-10.8,17.3-37.1,28.8-67.7,28.8c-31.3,0-57.5-12.1-68.1-29.5v-1.5l0.4,344.2
				c0,34.9,22,64.7,52.9,76.3l559.1,217l558.6-217c30.9-11.6,53-41.3,53-76.3v-343.9"/>
		</g>
		<g>
			<path class="st2" d="M1785,1683.3c-10.7,17.1-37.1,29.4-67.8,29.4c-31,0-57.6-12.3-68.1-29.4c-10.9,17-37.3,29.4-68.2,29.4
				c-31,0-57.2-12.3-68-29.4c-10.9,17.1-37.1,29.4-67.9,29.4c-31,0-57.2-12.3-68.1-29.4h-0.3c-10.6,17-37,29.4-67.8,29.4
				c-30.9,0-57.1-12.3-67.8-29.4c-10.9,17.1-37.5,29.4-68.1,29.4c-31,0-57.3-12.3-68-29.4h0.2c-11,17-37.2,29.4-67.9,29.4
				c-31,0-57.4-12.3-68.2-29.4c-10.8,17.1-37.3,29.4-68.1,29.4c-30.7,0-57.1-12.3-67.9-29.4h-0.3c-10.6,17-37.1,29.4-67.7,29.4
				c-31.1,0-57.3-12.3-68.2-29.4v0.6c-10.8,17.2-37.1,28.8-67.7,28.8c-31.3,0-57.5-12.3-68.1-29.4v-42.7
				c10.7,17.2,36.9,29.6,68.1,29.6c30.6,0,56.8-12.2,67.7-29.4c10.9,17.3,37.1,29.4,68.2,29.4c30.6,0,57.1-12.4,67.7-29.6h0.3
				c10.8,17.2,37.2,29.6,67.9,29.6c30.8,0,57.3-12.2,68.1-29.4c10.8,17.3,37.2,29.4,68.2,29.4c30.8,0,57-12.4,67.9-29.6h-0.2
				c10.7,17.2,37,29.6,68,29.6c30.7,0,57.3-12.2,68.1-29.4c10.7,17.3,36.9,29.4,67.8,29.4c30.8,0,57.2-12.4,67.8-29.6h0.3
				c10.9,17.2,37.1,29.6,68.1,29.6c30.8,0,57.1-12.2,67.9-29.4c10.9,17.3,37,29.4,68,29.4c30.9,0,57.3-12.4,68.2-29.6
				c10.5,17.2,37,29.6,68.1,29.6c30.7,0,57.1-12.2,67.8-29.4L1785,1683.3L1785,1683.3z"/>
		</g>
		<g>
			<path class="st2" d="M1785,1606.5c-10.7,17.1-37.1,29.1-67.8,29.1c-31,0-57.6-12.1-68.1-29.1c-10.9,17-37.3,29.1-68.2,29.1
				c-31,0-57.2-12-68-29.1c-10.9,17.1-37.1,29.1-67.9,29.1c-31,0-57.2-12.1-68.1-29.1h-0.3c-10.6,17-37,29.1-67.8,29.1
				c-30.9,0-57.1-12-67.8-29.1c-10.9,17.1-37.5,29.1-68.1,29.1c-31,0-57.3-12.1-68-29.1h0.2c-11,17-37.2,29.1-67.9,29.1
				c-31,0-57.4-12-68.2-29.1c-10.8,17.1-37.3,29.1-68.1,29.1c-30.7,0-57.1-12.1-67.9-29.1h-0.3c-10.6,17-37.1,29.1-67.7,29.1
				c-31.1,0-57.3-12-68.2-29.1v0.4c-10.8,17.3-37.1,28.7-67.7,28.7c-31.3,0-57.5-12.1-68.1-29.1v-42.6
				c10.7,17.1,36.9,29.4,68.1,29.4c30.6,0,56.8-12,67.7-29.4c10.9,17.4,37.1,29.4,68.2,29.4c30.6,0,57.1-12.3,67.7-29.4h0.3
				c10.8,17.1,37.2,29.4,67.9,29.4c30.8,0,57.3-12,68.1-29.4c10.8,17.4,37.2,29.4,68.2,29.4c30.8,0,57-12.3,67.9-29.4h-0.2
				c10.7,17.1,37,29.4,68,29.4c30.7,0,57.3-12,68.1-29.4c10.7,17.4,36.9,29.4,67.8,29.4c30.8,0,57.2-12.3,67.8-29.4h0.3
				c10.9,17.1,37.1,29.4,68.1,29.4c30.8,0,57.1-12,67.9-29.4c10.9,17.4,37,29.4,68,29.4c30.9,0,57.3-12.3,68.2-29.4
				c10.5,17.1,37,29.4,68.1,29.4c30.7,0,57.1-12,67.8-29.4L1785,1606.5L1785,1606.5z"/>
		</g>
		<g>
			<path d="M1262.9,2111.2c0,0,60,93.9,28.4,67.3c-23-19.8-54.5-65.6-77.4-103.2l-123.1,47.8c0,0-70.7,86.1-55,48
				c11.3-27.4,46.2-72,74.9-105.7l-84.3-101.8c0,0-103.7-40.4-62.6-37.4c26.9,2.1,83,22.2,123.4,38.6l70.3-111.8
				c0,0,6.5-111.2,16.4-71.2c6.8,27.5,4.6,86.9,1.3,130.9l128.8,31.4c0,0,107.8-28.3,72.6-6.6c-24.7,15.5-78.3,31.6-121.2,41.8
				L1262.9,2111.2z"/>
		</g>
		<g>
			<path d="M1299.1,2185.7c-1.5,0-3.8-0.6-9.3-5.3c-28-24.1-64.7-82.2-76.8-102.1l-120.7,46.9c-11.8,14.3-48.5,58.1-57.4,58.1
				c-1.2,0-2.3-0.6-3-1.5c-1.3-1.9-0.8-5.2,1.8-11.4c12.3-29.9,51.1-77.9,74-104.8l-82.6-99.8c-49.7-19.4-74.2-32.3-73.1-38.3
				c0.7-3.6,5.8-3.6,8.1-3.6c1.2,0,2.5,0.1,4,0.2c31.7,2.5,99.4,28.8,122.3,38.1l68.9-109.7c3.2-54.1,8.1-81.5,14.5-81.5
				c3.3,0,5,4.2,6.6,10.5c7.7,31.2,3.7,99.5,1.5,129.6l126.3,30.7c6.3-1.6,57.1-14.7,74.3-14.7c2,0,6.7,0,7.6,3.2
				c0.8,2.7-1.5,5.3-8.1,9.3c-30.2,18.9-97.1,36.1-120,41.6l7.3,129.3c12.8,20,41.1,66,37.1,73.3
				C1301.7,2185,1300.5,2185.7,1299.1,2185.7z M1215,2072.5l1,1.7c10.9,17.9,48.6,78.2,76.9,102.6c2.7,2.3,4.4,3.3,5.3,3.8
				c-1-7.7-19.1-39.6-37.2-68.1l-0.4-1.1l-7.5-133.9l1.9-0.4c42.3-10.1,96.2-26.3,120.5-41.5c2.9-1.8,4.4-3,5.2-3.7
				c-0.5-0.1-1.3-0.1-2.2-0.1c-17.4,0-73.1,14.6-73.7,14.7l-0.6,0.1l-0.6-0.1l-130.8-31.8l0.1-2c2.2-28.7,6.5-98.9-1.2-130.1
				c-0.8-3.4-1.6-5.2-2-6.2c-3.7,6.8-7.8,43.3-9.8,77l-0.4,1.1l-71.3,113.5l-1.8-0.7c-20.7-8.4-90.9-36-122.7-38.5
				c-3.1-0.2-5.4-0.1-6.4,0c5.5,5.6,38.8,20.7,70.1,32.9l1,0.7l85.5,103.3l-1.3,1.5c-22.6,26.4-62.3,75.2-74.6,105.1
				c-1.3,3.2-1.8,5-2,6.1c7.1-3.5,31.7-30.6,53-56.5l1-0.7L1215,2072.5z"/>
		</g>
		<g>
			<path class="st0" d="M1164.8,2086.4c0.7,1.7,2.1,3.1,3.6,3.1c1.5,0,2.6-1.4,3.6-3.1c1.3-3.2,2.6-10.6,2.2-26.2
				c0,0,0.8-52.5,40,3.8c109.8,158.4-46.6,159.4-46.6,159.4h1.5c0,0-156.5-1-46.5-159.4c39.2-56.4,39.7-3.8,39.7-3.8
				c-0.1,15.6,0.8,23,2.5,26.4L1164.8,2086.4L1164.8,2086.4z"/>
		</g>
		<g>
			<path d="M1169,2225.9l-1.4,0c-8.8-0.3-62.2-3.8-80.4-39.9c-14.5-28.8-3.3-70.2,33.5-123.1c12.7-18.2,22.7-27.1,30.5-27.1
				c13.2,0,13.5,23.6,13.5,24.6c-0.1,13.7,0.6,22,2.2,25.3l0.1,0c0.5,1.2,1.2,1.7,1.5,1.7c0,0,0.5-0.1,1.5-1.9c0.8-2,2.4-8.3,1.9-25
				c0-1.1,0.5-24.7,13.7-24.7c7.9,0,17.9,8.9,30.6,27.1c36.7,52.9,47.9,94.3,33.3,123.1C1231.2,2222,1177.8,2225.5,1169,2225.9
				L1169,2225.9L1169,2225.9z M1151.1,2040.3c-3.4,0-11.4,3.3-26.6,25.1c-35.7,51.4-46.9,91.2-33.2,118.3
				c17.5,34.6,70.6,37.2,77,37.4c6.3-0.2,59.5-2.8,77-37.4c13.7-27.1,2.6-66.9-33-118.3c-14.4-20.7-22.5-25.1-26.7-25.1
				c-7.1,0-8.9,14.8-9,19.9c0.4,13.1-0.4,22.5-2.3,27.1c-0.8,1.4-2.5,4.5-5.7,4.5c-2.3,0-4.4-1.6-5.6-4.2l-0.1,0
				c-2.1-4.1-2.9-12.3-2.8-27.5C1159.9,2055.1,1158.1,2040.3,1151.1,2040.3z"/>
		</g>
		<g>
			<path class="st0" d="M1084.3,2022.9c-1.4,1.3-2.1,2.8-1.5,4.1c0.4,1.4,1.8,2.5,3.8,2.6l-0.1-0.1c3.7,0.3,10.9-0.4,25.7-5.7
				c0,0,50.2-15.5,8.8,39c-116.9,153.5-165.8,5.2-165.8,5.2v1.1c0,0-47.1-149.1,137.4-93.4c65.9,19.7,15.8,36.7,15.8,36.7
				C1093.3,2017,1086.9,2020.3,1084.3,2022.9"/>
		</g>
		<g>
			<path d="M1024.4,2134.9c-46.4,0-68.1-56.6-71.1-65l-0.3,0.1c-0.7-2.1-16-51.9,7.3-83.7c20.9-28.5,66.1-32.9,133-12.7
				c23.9,7.1,35.6,14.8,35.7,23.4c0.2,10.7-17.8,17.2-19.8,17.9c-12.8,3.7-20.6,7.1-23.2,9.9c-0.9,0.9-1.1,1.4-1,1.5
				c0.2,0.6,0.5,0.9,1,1.1l0.7,0.1c3.2,0.3,9.7-0.2,24.7-5.5c0.4-0.1,7.1-2.2,13.8-2.2c6.8,0,11.3,2.1,13.4,6.2
				c3.6,7.3-1.5,19.9-15.7,38.6C1087.2,2111.1,1054.1,2134.9,1024.4,2134.9L1024.4,2134.9L1024.4,2134.9z M957.4,2067.4
				c0.2,0.6,21.3,62.8,66.9,62.8c0,0,0,0,0,0c28.2,0,60.1-23.1,94.8-68.7c16.8-22.1,16.8-30.6,15.2-33.6c-1.2-2.4-4.3-3.6-9.2-3.6
				c-6,0-12.3,1.9-12.3,1.9c-8,2.8-14.6,4.6-19.8,5.4l0.8,0.6l-7.4-0.2c-2.7-0.1-4.9-1.6-5.8-3.8l-2.2-1.6l1.8,0.1
				c-0.3-1.7,0.6-3.7,2.4-5.5c3.3-3.4,11.1-6.9,25.1-11c4.2-1.5,16.6-7.1,16.5-13.3c-0.1-3.5-4.4-10.6-32.3-18.9
				c-64.6-19.5-108.3-15.7-127.9,11c-20.2,27.5-9,71.2-7,78.5L957.4,2067.4z"/>
		</g>
		<g>
			<path class="st0" d="M1119.4,1926.3c-1.6-0.9-3.3-0.9-4.5,0c-1.2,0.8-1.6,2.4-1.2,4.3v-0.1c0.7,3.6,3.8,10.4,13.7,22.7
				c0,0,30.1,43-34.7,20.4c-181.9-63.5-56.1-156.1-56.1-156.1l-0.9,0.4c0,0,126.8-91,131.3,101.9c1.5,68.7-30.2,26.4-30.2,26.4
				C1128,1933.4,1122.7,1928.1,1119.4,1926.3"/>
		</g>
		<g>
			<path d="M1121.9,1982.4c-7.2,0-17.3-2.2-30-6.7c-61.2-21.4-94.6-48.4-99.5-80.5c-6.1-40.5,35.4-74.2,42-79.2l-0.1-0.2
				c1.3-0.9,30.9-21.9,62.5-21.9c31.7,0,70.1,21.8,72.5,125.6c0.4,20.5-1.9,33.1-7.3,38.6c-2,2.1-4.4,3.1-7.2,3.1
				c-9.3,0-18.9-12.4-19.9-13.9c-9-13.2-14.1-17.7-16.6-19.2c-0.8-0.4-1.5-0.5-2-0.1c-0.2,0.2-0.4,0.8-0.2,1.8h0
				c0.7,3.3,3.5,9.7,13.2,21.7c1.2,1.7,10.8,15.9,6.3,24.7C1133.4,1980.4,1128.8,1982.4,1121.9,1982.4z M1037.9,1819.2l0.1,0.1
				c-0.5,0.3-46.9,35.1-40.9,75.3c4.6,30.2,37,56,96.4,76.7c21.4,7.4,35,8.4,37.9,2.9c2.8-5.3-3.4-16.3-5.8-19.7
				c-8.1-10-12.8-17.9-14-23.4h-0.1c-0.6-2.8,0.2-5.3,2.1-6.7c2.1-1.4,4.8-1.5,7.1-0.1c4.4,2.5,10.5,9.4,18.1,20.6
				c2.4,3.2,10.2,11.9,16.1,11.9c1.4,0,2.7-0.6,3.8-1.7c3-3.1,6.5-11.6,5.9-35.2c-1.8-79.2-25.3-121-67.8-121
				C1069.6,1798.7,1042.9,1815.8,1037.9,1819.2z"/>
		</g>
		<g>
			<path class="st0" d="M1222.6,1930.2c0.4-1.7,0-3.6-1.2-4.4c-1.1-0.6-3-0.4-4.7,0.4c-3.1,1.5-8.5,6.6-17.4,19.7
				c0,0-31.4,42.1-30.1-26.5c4.4-192.8,131.4-101.8,131.4-101.8l-0.9-0.7c0,0,125.9,92.6-56.4,156.2c-64.6,22.6-34.3-20.3-34.3-20.3
				C1218.7,1940.5,1222.1,1933.9,1222.6,1930.2"/>
		</g>
		<g>
			<path d="M1214.2,1982.2c-6.8,0-11.3-2-13.4-6c-4.5-8.7,5.2-22.9,6.3-24.5c8.1-10.6,12.5-17.9,13.1-21.8c0.3-1.2-0.1-2-0.2-2.1
				c-0.8,0.1-1.5,0.3-2.2,0.6c-2.1,1-6.9,4.9-16.6,18.9c-1.1,1.5-10.6,13.8-19.8,13.8c-2.8,0-5.2-1-7.2-3.1
				c-5.4-5.5-7.8-18.1-7.4-38.5c2.4-103.8,40.7-125.5,72.5-125.5c28.9,0,56.8,18,61.8,21.3l0,0l0.9,0.7l0,0
				c6.8,5.3,48.2,39.4,41.8,79.5c-5.1,31.9-38.7,58.8-99.7,80.1C1231.5,1979.9,1221.4,1982.2,1214.2,1982.2z M1219.9,1923.1
				c1,0,1.9,0.2,2.7,0.6c2.1,1.6,3,4.3,2.3,7c-0.7,4.6-5.2,12.2-14,23.7c-2.3,3.4-8.7,14.4-5.9,19.6c2.8,5.4,16.3,4.5,37.6-3
				c59.2-20.7,91.7-46.4,96.6-76.4c6.2-38.4-35.6-71.7-40.3-75.3c-3-2.1-30.8-20.7-59.4-20.7c-42.5,0-66,41.8-67.8,121
				c-0.5,23.5,3,32.1,6,35.1c1.1,1.1,2.4,1.7,3.8,1.7c5.8,0,13.5-8.5,16-11.8c7.8-11.3,13.9-18.2,18.3-20.4
				C1217.1,1923.5,1218.5,1923.1,1219.9,1923.1z"/>
		</g>
		<g>
			<path class="st0" d="M1250.7,2029.6c1.7-0.1,3.4-1.1,3.8-2.5c0.7-1.3-0.3-2.8-1.7-4.1c-2.7-2.7-9.1-6.3-24.2-10.5
				c0,0-49.8-17,15.8-36.7c184.9-55.6,137.5,93.4,137.5,93.4l0.2-1.1c0,0-49.1,148.2-165.9-5.2c-41.7-54.4,8.6-39,8.6-39
				C1239.8,2029.2,1247.2,2029.9,1250.7,2029.6L1250.7,2029.6L1250.7,2029.6z"/>
		</g>
		<g>
			<path d="M1312.9,2134.9c-29.7,0-62.9-23.7-98.5-70.5c-14.3-18.7-19.5-31.3-15.9-38.6c2-4.1,6.5-6.2,13.3-6.2
				c6.7,0,13.4,2.1,13.7,2.1c12.5,4.4,19.4,5.5,23,5.6l2.1-0.1c0.9,0,1.6-0.6,1.7-0.8c0.1-0.2,0-0.8-1-1.7c-2.2-2.3-8-5.8-23.3-10
				c-2.2-0.7-20-7.2-19.8-17.9c0.2-8.6,11.8-16.2,35.6-23.3c67.1-20.2,112.4-15.8,133.2,12.7c23.3,31.9,7.9,81.6,7.2,83.7l-0.1,0
				C1381,2078.6,1359.2,2134.8,1312.9,2134.9C1312.9,2134.9,1312.9,2134.9,1312.9,2134.9z M1211.8,2024.3c-4.9,0-7.9,1.2-9.1,3.6
				c-1.5,3.1-1.5,11.5,15.4,33.7c34.7,45.6,66.6,68.7,94.8,68.7c0,0,0,0,0,0c45.7,0,66.8-62.1,67-62.8l0.1,0
				c2.1-7.4,13.2-51-6.8-78.4c-19.5-26.7-63.3-30.4-128.1-11c-27.9,8.4-32.2,15.4-32.2,18.9c-0.1,6.2,12.2,11.8,16.5,13.3
				c12.9,3.6,21.4,7.3,25.1,11.1c3.4,3,2.8,5.6,2.1,6.8c-0.4,1.4-1.8,2.7-3.6,3.4v0.2l-2.1,0.2c-0.5,0.1-1.1,0.1-1.7,0.1
				c-5.6,0-14.1-2-25.2-5.9l0,0C1224.1,2026.1,1217.8,2024.3,1211.8,2024.3z"/>
		</g>
		<g>
			<path d="M1061.1,1851.9c0,0-11.8,8.2-21.9,11.4c-10.2,3-14.6,10.7-15.9,12.6c0,0-5.7,13.4-9.5,7.9c-4-5.3,4-15.4,4-15.4
				c1.2-2,5.8-9.5,15.7-12.9c10.2-3,22-11,22-11s11.4-9,17.5-17.5c6.3-8.7,14.7-10.7,17.1-11c0,0,11.9-4.2,16.1,1
				c3.9,5.4-10.5,6.5-10.5,6.5c-2.5,0.9-10.9,2.7-17.1,11.1C1072.5,1843.2,1061.1,1851.9,1061.1,1851.9"/>
		</g>
		<g>
			<path d="M1275,1851.8c0,0-11.2-8.8-17.2-17.4c-6.2-8.5-14.8-10.4-16.8-11.3c0,0-14.7-1.1-10.7-6.4c4-5.3,16.1-0.9,16.1-0.9
				c2.4,0.3,10.9,2.2,16.9,11c6.1,8.5,17.5,17.6,17.5,17.6s12,7.9,22,11c9.9,3.2,14.4,10.6,15.6,12.5c0,0,8,10.4,4.2,15.8
				c-3.9,5.5-9.4-7.9-9.4-7.9c-1.5-2.1-5.8-9.6-16.1-12.6C1287.2,1859.8,1275,1851.8,1275,1851.8"/>
		</g>
		<g>
			<path d="M1341.6,2055.4c0,0,5.1-13.4,11.2-22.1c6.6-8.2,5.4-17.2,5.3-19.3c0,0-3.2-14.3,3.1-12.1c6.2,2.1,6,14.7,6,14.7
				c0,2.4,1,11.2-5.3,19.8c-6.5,8.4-11.5,22-11.5,22s-3.7,13.9-3.5,24.2c0,10.6-6,17.2-7.3,19.2c0,0-7.5,10.4-13.6,8.6
				c-6.6-2.1,4.7-11.6,4.7-11.6c1.2-1.9,7.2-8.7,6.8-18.9C1337.6,2069.3,1341.6,2055.4,1341.6,2055.4"/>
		</g>
		<g>
			<path d="M995.6,2055.4c0,0,4.1,13.9,4,24.5c0,10.6,5.6,17.1,7.2,18.9c0,0,11,9.5,4.8,11.6c-6.3,1.8-13.8-8.6-13.8-8.6
				c-1.5-2-7.2-8.6-7.2-19.2c0.1-10.3-3.8-24.2-3.8-24.2s-4.9-13.6-11.3-22c-6.1-8.5-5.3-17.4-5.3-19.8c0,0,0-12.6,6.2-14.7
				c6.1-2.2,2.8,12.1,2.8,12.1c-0.2,2.1-1,11.1,5.5,19.3C990.8,2042,995.6,2055.4,995.6,2055.4"/>
		</g>
		<g>
			<path class="st3" d="M1167.5,1963.5c-19.3,0-35.1,15.9-35.1,35.3c0,19.9,15.8,35.3,35.1,35.3c19.7,0,35.5-15.4,35.5-35.3
				C1203,1979.3,1187.2,1963.5,1167.5,1963.5"/>
		</g>
		<g>
			<path class="st4" d="M1167.5,2035.1c-20.2,0-36-15.9-36-36.3c0-20,16.2-36.2,36-36.2c20.1,0,36.4,16.3,36.4,36.2
				C1203.9,2019.1,1187.9,2035.1,1167.5,2035.1z M1167.5,1964.4c-18.8,0-34.2,15.4-34.2,34.4c0,19.3,15,34.4,34.2,34.4
				c19.4,0,34.5-15.1,34.5-34.4C1202.1,1979.8,1186.6,1964.4,1167.5,1964.4z"/>
		</g>
		<g>
			<path d="M1234.3,1324.2l4.7,95.3l80.5-52.2l25.4,41.2l-94.9,55v19.8c0,0,110.4,62.1-24.2,59.7v0.8c-47.2,39.2-91.8,0.3-91.8,0.3
				c-134.6,2.3-24.3-59.4-24.3-59.4v-20l-83.9-65.2l19.9-43.2l75,64.2l4.3-95L1234.3,1324.2z"/>
		</g>
		<g>
			<path class="st5" d="M1334.6,1405.9c77.9,89.3,135.3-4.7,135.3-4.7c98.5-24,40-93.7,40-93.7c102.7-67.4-18-120.2-18-120.2
				c-0.8-89.6-77-82.9-77-82.9c-79.6-69.6-155.6,7.7-155.6,7.7c-119.4-99.4-209.9,15.2-209.9,15.2s-76.3-52.8-110.5,30
				c0,0-121.4-3.3-76.1,119.2c0,0-93.9,93.9,28.6,140.2c0,0,65.2,120.6,154.7,5.8c0,0,55,3.2,46.3-74.2c0,0,69.8,28.9,135.7-3.3
				c0,0,21.1,47.5,66.5,20.9c0,0-7.1,30.6,36.8,36.7L1334.6,1405.9z"/>
		</g>
		<g>
			<path d="M968.4,1481.6c-45.9,0-76.1-44.6-83.7-57.2c-37.1-14.7-58.8-35.6-64.5-62.1c-8.3-38.3,20.3-75.4,31.5-88.1
				c-12.9-37.8-11.6-68.3,3.9-90.5c20.9-30,60.7-35.1,76.8-35.9c18.1-38.4,45.5-46.7,65.8-46.7c20.6,0,39.2,8.4,49.1,13.8
				c14.4-15.4,55.5-53,113.2-53c33.2,0,66.3,12.6,98.3,37.5c13.2-11.1,44.9-33.7,85.1-33.7c26.3,0,51.3,9.7,74.3,28.9
				c0,0,0.1,0,0.1,0c13.4,0,79.2,4.2,83,86.5c15.3,7.8,56.4,31.8,59.4,66.9c1.8,21.5-10.8,42.3-37.4,61.8
				c7.5,11.8,18.2,34.1,11,56.3c-6.7,20.3-26.3,34.9-58.5,43.4c-7.7,11-34.2,44.4-73.6,44.4c0,0,0,0,0,0
				c-25.5,0-50.7-14.1-74.9-41.8l-0.5-0.5c-16.7-2.9-28.8-9.6-35.8-19.9c-2.6-3.8-4.2-7.7-5.2-11.2c-6,2-11.8,3.1-17.5,3.1
				c-23,0-37.3-16-44.2-26.3c-19.8,8.3-41.6,12.5-64.9,12.5c-23.6,0-43.7-4.3-56.3-7.9c0.3,22.5-5,40.1-16.1,52.5
				c-12.3,13.7-27.9,16.9-36.1,17.5C1024.1,1464.9,996.4,1481.6,968.4,1481.6z M938.5,1166.9c-5.7,0-48.3,0.9-67,27.8
				c-12.4,17.9-12.3,44.3,0.3,78.4l2.1,5.8l-4.3,4.4c-0.4,0.4-38.3,39-30.5,75.1c4.4,20.4,23.2,37,55.7,49.3l3.4,1.3l1.7,3.2
				c0.3,0.5,27.8,50.3,68.6,50.3c22.7,0,46.3-15.4,70-45.8l3.1-4l5.1,0.3h0c3,0,16.3-0.6,25.9-11.3c9.5-10.7,13-28.2,10.3-52.2
				l-1.8-16.2l15.1,6.2c0.3,0.1,27.7,11.2,63.2,11.2c23.5,0,45.3-4.8,64.6-14.2l8.9-4.4l4.1,9.1c0.1,0.2,10.8,23.3,31.4,23.3
				c6.6,0,13.8-2.3,21.4-6.7l19.3-11.3l-5.1,21.8c0,0.1-1.3,6.8,3.1,13c4.3,6.1,13.2,10.2,25.7,12l3.2,0.4l5.6,5.5
				c20.9,23.9,41.2,35.7,60.9,35.7c0,0,0,0,0,0c35.2,0,59.1-38.2,59.4-38.6l2.1-3.4l3.9-1c27.4-6.7,43.7-17.3,48.4-31.6
				c7.1-21.4-13.3-46.3-13.5-46.6l-6.9-8.3l9-5.9c25.8-17,38.3-33.7,36.9-49.7c-2.1-25.6-39.4-47.3-53.5-53.6l-5.7-2.5l-0.1-6.2
				c-0.6-66.3-44.8-73.4-63.8-73.4l-6.8,0.4l-3.1-2.7c-20.2-17.7-42-26.7-64.6-26.7c-44,0-77.5,33.5-77.8,33.9l-6.2,6.3l-6.8-5.7
				c-30.5-25.4-61.7-38.3-92.5-38.3c-61.5,0-103.3,51.6-103.7,52.1l-5.6,7l-7.4-5.1c-0.2-0.2-22-14.9-45.6-14.9
				c-22.4,0-39.4,13.7-50.6,40.6l-2.5,6.1L938.5,1166.9C938.6,1166.9,938.6,1166.9,938.5,1166.9z"/>
		</g>
		<g>
			<path class="st0" d="M105.2,728.1l29,59.9l-81.4,22.3l25.4,50.6l81.5-22.3l25.5,50.7l-81.7,22.2l25.2,50.4l81.8-22l25.8,50.7
				l-82.3,21.9l25.6,50.4l82-21.7l36.5,70.2c15.4-4.3,30.6-9.6,45.1-15.7l-190.8-381C138.8,720.5,123,725.1,105.2,728.1"/>
		</g>
		<g>
			<path class="st0" d="M329.2,749.2c-5.7-27,55.7-59.3,105-99L369,519.6c-25.8,14.1-54.5,36.2-83.1,68.3
				c-7.7,7.9-14.4,16.2-20.9,24.4L329.2,749.2z"/>
		</g>
		<g>
			<path class="st1" d="M475.6,516.9c-15.9-21.6-56.6-24.5-106.6,2.7l65.2,130.6C479.5,613.3,514.4,569.6,475.6,516.9"/>
		</g>
		<g>
			<path class="st1" d="M152.6,714.6l190.8,381c53.5-22.2,97.6-53.5,112.5-76.7l-82.2-174.8L333,757.3c-2.2-2.7-3.2-5.2-3.8-8.1
				l-64.2-136.8C232.9,652.3,205.2,692.1,152.6,714.6"/>
		</g>
		<g>
			<polygon class="st1" points="159.8,838.6 78.3,860.9 103.6,911.4 185.3,889.3 			"/>
		</g>
		<g>
			<polygon class="st1" points="210.6,939.8 128.8,961.8 154.1,1012.4 236.4,990.5 			"/>
		</g>
		<g>
			<path class="st1" d="M179.7,1062.8l29.8,60.1c28.7,1.6,59.1-3.2,88.8-11.6l-36.6-70.2L179.7,1062.8z"/>
		</g>
		<g>
			<path class="st0" d="M433.1,651.2l36.2,72.4c25.8-21.7,53.3-47.5,82.6-72L484,530.3C508.5,577.5,475.1,617.1,433.1,651.2"/>
		</g>
		<g>
			<path class="st1" d="M333,757.3c1.8,2.8,4.6,5.2,8.3,7.7c36.5,25.8,79.4-0.5,128-41.3l-36.1-72.4
				C379.1,694.7,310.7,728.8,333,757.3"/>
		</g>
		<g>
			<path d="M220.3,1130.8C220.3,1130.8,220.3,1130.8,220.3,1130.8c-3.8,0-7.5-0.1-11.2-0.3l-4.5-0.2L0,721.8l13.7,1.2
				c13.5,1.1,26.6,1.7,38.7,1.7c113.7,0,152-48.2,196.3-104c9.9-12.5,20.2-25.4,31.5-37.9c51-56.8,108.8-90.7,154.6-90.7
				c20.7,0,37.3,7.2,46.9,20.2c14.8,20.1,20.7,40.7,17.4,61.2c-7.3,46.3-58.2,82.7-103.1,114.8c-28.2,20.2-57.4,41.1-59.6,55.7
				c-0.4,3,0.3,5.7,2.5,8.5l125.6,266.6l-2.3,3.6C435.5,1065.2,319.5,1130.8,220.3,1130.8z M214.3,1115.3c2,0.1,4,0.1,6,0.1h0
				c94.1,0,199.9-61.5,226.7-97.6L326,760.5c-3.9-4.7-5.8-11.5-4.8-18.7c3.1-21.1,30.8-40.9,65.8-66c42.4-30.3,90.5-64.8,96.8-104.6
				c2.6-16.5-2.2-32.8-14.6-49.7c-6.6-9-18.8-13.9-34.5-13.9c-41.5,0-95,32-143.2,85.6c-11,12.1-21.1,24.8-30.9,37.1
				c-44.9,56.5-87.2,109.8-208.4,109.9c-8.5,0-17.3-0.3-26.4-0.8L214.3,1115.3z"/>
		</g>
		<g>
			<path d="M372.9,782.8c-12.9,0-25-3.9-36-11.6c-4.5-3-7.9-6.1-10.2-9.6c-4.5-5.7-6.4-12.5-5.3-19.7c3.1-21.1,30.8-40.9,65.8-66
				c56-40.1,119.4-85.5,90-141.9l13.5-7.3l71,126.8l-4.9,4.1c-14.8,12.5-29.2,25.3-43.2,37.7C460.8,742.2,415.1,782.8,372.9,782.8z
				 M499.4,573.6c-7.2,45.9-59.3,83.3-103.3,114.8c-28.2,20.2-57.4,41.1-59.5,55.7c-0.4,3,0.3,5.6,2.5,8.5c1.5,2.2,3.5,4,6.5,6
				c8.6,6.1,17.5,8.9,27.3,8.9c36.4,0,82.1-40.7,130.5-83.8c12.5-11.2,25.4-22.6,38.6-33.9L499.4,573.6z"/>
		</g>
		<g>
			<path class="st0" d="M2215.5,728.1l-29.1,59.9l81.1,22.3l-25.2,50.6l-81.7-22.3l-25.4,50.7l81.7,22.2l-25.1,50.4l-81.8-22
				l-25.6,50.7l82,21.9l-25.5,50.4L2059,1041l-36.5,70.2c-15.4-4.3-30.7-9.6-45.2-15.7l190.9-381
				C2182.1,720.5,2197.4,725.1,2215.5,728.1"/>
		</g>
		<g>
			<path class="st0" d="M1991.4,749.2c5.7-27-55.7-59.3-105-99l65.4-130.6c25.8,14.1,54.3,36.2,83.4,68.3
				c7.3,7.9,13.9,16.2,20.6,24.4L1991.4,749.2z"/>
		</g>
		<g>
			<path class="st1" d="M1845,516.9c15.9-21.6,56.6-24.5,106.7,2.7l-65.3,130.6C1841.1,613.3,1806.2,569.6,1845,516.9"/>
		</g>
		<g>
			<path class="st1" d="M2168.1,714.6l-190.9,381c-53.3-22.2-97.5-53.5-112.5-76.7l82.1-174.8l40.8-86.8c2.2-2.7,3.2-5.2,3.7-8.1
				l64.3-136.8C2088,652.3,2115.5,692.1,2168.1,714.6"/>
		</g>
		<g>
			<path class="st1" d="M2215.5,728.1c25.5,4.4,55.7,5.5,92.2,2.5l-40.2,79.6l-81.1-22.3L2215.5,728.1z"/>
		</g>
		<g>
			<polygon class="st1" points="2160.7,838.6 2242.4,860.9 2217,911.4 2135.4,889.3 			"/>
		</g>
		<g>
			<polygon class="st1" points="2110.1,939.8 2191.9,961.8 2166.5,1012.4 2084.5,990.5 			"/>
		</g>
		<g>
			<path class="st1" d="M2141,1062.8l-29.9,60.1c-28.7,1.6-59.2-3.2-88.6-11.6l36.5-70.2L2141,1062.8z"/>
		</g>
		<g>
			<path class="st0" d="M1887.5,651.2l-36.2,72.4c-25.6-21.7-53.3-47.5-82.3-72l67.7-121.2C1812.1,577.5,1845.6,617.1,1887.5,651.2"
				/>
		</g>
		<g>
			<path class="st1" d="M1987.7,757.3c-2,2.8-4.9,5.2-8.2,7.7c-36.8,25.8-79.4-0.5-128.2-41.3l36.2-72.4
				C1941.5,694.7,2009.7,728.8,1987.7,757.3"/>
		</g>
		<g>
			<path d="M2100.3,1130.8c-98.9,0-215.1-65.6-242.2-108.1l-2.3-3.6L1980.7,754c3.1-4.3,3.9-6.9,3.4-9.9
				c-2.1-14.7-31.3-35.5-59.6-55.8c-44.9-32.1-95.7-68.5-103.1-114.8c-3.3-20.5,2.6-41.1,17.3-61.2c9.6-13,26.3-20.2,47-20.2
				c45.8,0,103.8,33.9,154.9,90.7c11.2,12.4,21.4,25.3,31.3,37.7c44.3,55.9,82.5,104.2,196.4,104.2c12.2,0,25.2-0.6,38.8-1.7
				l13.7-1.2L2116,1130.3l-4.5,0.2C2107.8,1130.7,2104,1130.8,2100.3,1130.8z M1873.5,1017.9c27.6,36.8,137.1,100,232.8,97.5
				l188.6-376c-9.1,0.5-18,0.8-26.5,0.8c-121.3,0-163.6-53.4-208.4-110c-9.7-12.2-19.7-24.9-30.6-37
				c-48.3-53.6-101.9-85.6-143.5-85.6c-15.7,0-28,5-34.7,13.9c-12.4,16.9-17.2,33.1-14.5,49.7c6.4,39.9,54.4,74.3,96.9,104.7
				c35.1,25.1,62.8,44.9,65.9,66c1.1,7.2-0.8,14-5.6,20.2L1873.5,1017.9z"/>
		</g>
		<g>
			<path d="M1947.9,782.8L1947.9,782.8c-42.4,0-88.1-40.7-141-87.8c-13.9-12.4-28.2-25.1-42.9-37.5l-4.9-4.1l70.8-126.8l13.5,7.3
				c-29.3,56.4,34.1,101.8,90.1,141.9c35.1,25.1,62.8,44.9,65.8,66.1c1.1,7.2-0.8,14-5.6,20.1c-2.7,3.7-6.6,6.8-9.6,9.1
				C1972.9,778.9,1960.8,782.8,1947.9,782.8z M1778.8,649.8c13.1,11.2,25.9,22.6,38.4,33.7c48.4,43.2,94.2,83.9,130.7,83.9h0
				c9.8,0,18.7-2.9,27.2-8.8c3.1-2.3,5.1-4.1,6.4-5.9c2.4-3,3.1-5.7,2.7-8.7c-2.1-14.6-31.3-35.5-59.6-55.7
				c-43.9-31.5-96-68.8-103.3-114.7L1778.8,649.8z"/>
		</g>
		<g>
			<path class="st0" d="M1405.9,638.5c-17.7,14.1-48.2,34.6-82.1,55.3v271.2c38.3-23.2,77.3-48.2,114.1-68.1V615.7
				C1425.2,624.2,1414,632,1405.9,638.5"/>
		</g>
		<g>
			<path class="st0" d="M1588.7,564.9c-1.6,0-3.2,0.4-4.8,0.4l-38.8,293.1c1.6-0.1,3.2-0.4,4.8-0.4c31.8,0,61.2,10.7,89,26.3
				l86.8-266.3C1683.1,587.5,1637.5,564.9,1588.7,564.9"/>
		</g>
		<g>
			<path class="st0" d="M1979.5,764.9c-36.4,25.4-78.9,0-127-40.3l-113,235.9c45.9,39.8,86.8,72.6,125.1,58.1l123.1-261.4
				C1985.7,760,1982.8,762.4,1979.5,764.9"/>
		</g>
		<g>
			<path class="st0" d="M341.3,764.9c-3.7-2.5-6.4-4.9-8.3-7.7l122.9,261.4c38.7,14.5,79.4-18.3,125.3-58.1L468.1,724.6
				C419.8,764.9,377.6,790.4,341.3,764.9"/>
		</g>
		<g>
			<path class="st0" d="M1160.4,764.3c-11.3,0-26.4-3.9-43.4-10v272.9c15.7,5.5,30.3,8.8,43.4,8.8c13,0,27.6-3.3,43.2-8.8V754.3
				C1186.8,760.4,1171.6,764.3,1160.4,764.3"/>
		</g>
		<g>
			<path class="st0" d="M731.9,564.9c-48.7,0-94.3,22.7-136.8,53.1l86.9,266.3c27.5-15.7,57-26.3,88.9-26.3c1.5,0,3.1,0.4,4.6,0.4
				l-38.6-293.1C735.1,565.2,733.6,564.9,731.9,564.9"/>
		</g>
		<g>
			<path class="st0" d="M914.8,638.5c-8.2-6.5-18.9-14.3-31.9-22.8V897c37,19.9,75.9,44.8,114,68.1V693.8
				C962.8,673.2,932.3,652.6,914.8,638.5"/>
		</g>
		<g>
			<path class="st1" d="M996.9,693.8v271.2c42.8,26.1,84.4,50.1,120,62.2V754.3C1081.4,741.5,1036.5,717.8,996.9,693.8"/>
		</g>
		<g>
			<path class="st1" d="M736.7,565.2l38.7,293.1c30.3,1.4,67.4,17,107.5,38.6V615.8C846.1,592.5,793.1,566.8,736.7,565.2"/>
		</g>
		<g>
			<path class="st1" d="M468.1,724.6l113.2,235.9c30.8-26.6,63.9-55.9,100.7-76.3L595,617.9C549,650.7,506.7,692.4,468.1,724.6"/>
		</g>
		<g>
			<path class="st1" d="M1203.6,754.3v272.9c35.7-12.2,77.3-36.1,120.2-62.2V693.8C1284.1,717.8,1239.4,741.5,1203.6,754.3"/>
		</g>
		<g>
			<path class="st1" d="M1437.9,615.8V897c40-21.6,77.1-37.2,107.3-38.6l38.7-293.1C1527.5,566.8,1474.7,592.5,1437.9,615.8"/>
		</g>
		<g>
			<path class="st1" d="M1725.8,617.9l-86.8,266.3c36.5,20.4,69.7,49.7,100.6,76.3l113-235.9C1814,692.4,1771.8,650.7,1725.8,617.9"
				/>
		</g>
		<g>
			<path d="M1160.4,1043.7c-50.5,0-120.3-43-194.1-88.5c-71.5-44.1-145.4-89.7-195.4-89.7c-68,0-126.2,50.3-177.5,94.7
				c-43.2,37.3-80.5,69.6-118.2,69.6c-7.5,0-14.9-1.3-22-4l-2.9-1.1L326,760.5l13.4-7.6c1.2,1.8,3.2,3.5,6.2,5.6
				c8.6,6.1,17.5,9,27.4,9c36.3,0,81.8-40.6,130.1-83.5c66.7-59.4,142.3-126.8,228.9-126.8c78.9,0,151.4,47.2,187.6,75.3
				c46.2,36.9,188.7,124.1,240.8,124.1c52.7,0,193-86.2,240.7-124.1c36.4-28.2,108.9-75.3,187.7-75.3c86.7,0,162.4,67.4,229.1,126.8
				c48.2,42.9,93.7,83.5,130,83.5c0,0,0,0,0,0c9.8,0,18.7-2.9,27.2-8.9c3-2.2,5-4.1,6.3-5.9l13.2,7.8l-124.4,264.2l-2.9,1.1
				c-7,2.7-14.4,4-21.9,4c-37.6,0-74.9-32.2-118-69.5c-51.3-44.4-109.4-94.7-177.4-94.7c-50.1,0-124,45.6-195.4,89.6
				C1280.8,1000.7,1211,1043.7,1160.4,1043.7z M770.8,850.2c54.4,0,130.2,46.7,203.5,91.9c68.8,42.4,139.8,86.2,186,86.2
				c46.3,0,117.4-43.9,186.1-86.2c73.3-45.2,149-91.9,203.5-91.9c73.7,0,134.2,52.3,187.5,98.5c44.9,38.8,87.2,74.3,121.5,63.7
				l109.8-233.2c-6.7,2.5-13.7,3.7-20.9,3.7h0c-42.2,0-87.6-40.5-140.2-87.4c-64.7-57.6-138-123-218.9-123
				c-74.2,0-143.4,45.2-178.2,72.1c-46.4,36.9-191.7,127.3-250.2,127.3c-58.9,0-204-90.4-250.4-127.4c-27.8-21.6-101-72-178.1-72
				c-80.7,0-154,65.3-218.7,122.9c-52.7,46.9-98.1,87.4-140.3,87.4c-7.3,0-14.4-1.3-21.2-3.8l109.7,233.3
				c34.7,10.6,76.9-25,121.8-63.8C636.6,902.5,697.1,850.2,770.8,850.2z"/>
		</g>
		<g>
			<path d="M1164.6,497.5c253.6,0,459.2-111.5,459.2-248.7C1623.8,111.4,1418.2,0,1164.6,0C911.1,0,705.2,111.4,705.2,248.8
				C705.2,386,911.1,497.5,1164.6,497.5"/>
		</g>
		<g>
			<path class="st3" d="M1165.1,457.1c225.4,0,408.3-93.2,408.3-208.3c0-115.2-182.9-208.3-408.3-208.3
				c-225.8,0-408.3,93.1-408.3,208.3C756.8,363.9,939.3,457.1,1165.1,457.1"/>
		</g>
		<g>
			<path class="st6" d="M1165.1,457.1c225.4,0,408.3-93.2,408.3-208.3c0-115.2-182.9-208.3-408.3-208.3
				c-225.8,0-408.3,93.1-408.3,208.3C756.8,363.9,939.3,457.1,1165.1,457.1z"/>
		</g>
		<g>
			<path class="st0" d="M1165.4,407.2c183.5,0,332.5-59.6,332.5-133c0-73.3-149.1-132.8-332.5-132.8
				c-183.6,0-332.5,59.5-332.5,132.8C833,347.6,981.8,407.2,1165.4,407.2"/>
		</g>
		<g>
			<path d="M1165.4,422.6c-195.1,0-347.9-65.2-347.9-148.5c0-83.1,152.8-148.2,347.9-148.2c195.1,0,347.9,65.1,347.9,148.2
				C1513.4,357.4,1360.5,422.6,1165.4,422.6z M1165.4,156.8c-186.8,0-317.1,61.9-317.1,117.4c0,55.6,130.2,117.6,317.1,117.6
				c186.9,0,317.1-62,317.1-117.6C1482.5,218.7,1352.3,156.8,1165.4,156.8z"/>
		</g>
		<g>
			<path class="st0" d="M1164.3,179.6c-176.8,0-319.8,143.5-319.8,320c0,176.9,143,320,319.8,320h-4c176.5,0,319.9-143.1,319.9-320
				c0-176.5-143.3-320-319.9-320L1164.3,179.6L1164.3,179.6z"/>
		</g>
		<g>
			<path d="M1164.3,827.2l-4,0c-178.6-2.1-323.5-148.7-323.5-327.6c0-179,145-325.5,323.6-327.7v0l4,0
				c178.6,2.2,323.6,148.7,323.6,327.7C1487.9,678.5,1342.9,825.1,1164.3,827.2L1164.3,827.2L1164.3,827.2z M1162.3,187.3
				c-170.9,1-310.1,141.1-310.1,312.3c0,171.2,139.1,311.2,310.2,312.3c171-1,310.2-141.1,310.2-312.3
				C1472.5,328.4,1333.3,188.3,1162.3,187.3z"/>
		</g>
		<g>
			<path d="M1111.1,764.1l-65.8-111.8l-120.6-19.7L894.4,671c1.4,2,2.1,3.9,3.5,5.8l5.2,7.5c40.4,56.9,98.6,100.2,166.9,121.2
				l12.3,2.3L1111.1,764.1z"/>
		</g>
		<g>
			<polygon points="1028.7,455.3 1080.5,614.9 1162.3,614.9 1244.1,614.9 1295.8,455.3 1162.1,358.5 			"/>
		</g>
		<g>
			<path d="M1162.1,293.8v-0.2l99.5-65.1v-32.2c-31.1-10.5-64.5-16.4-99.3-16.7c-34.6,0.3-67.9,6.2-99.3,16.7v32.2L1162.1,293.8z"/>
		</g>
		<g>
			<path d="M977.7,404.6l3.5-126.9l-25.8-20c-13.6,11.5-26.2,24.2-37.4,37.9l-1.4,1.4c-36.4,44.5-60.7,99-69,158.8l28.5,12.5
				L977.7,404.6z"/>
		</g>
		<g>
			<path d="M1279.6,652.3l-65.8,111.8l28.5,43.7l11.9-2.2c69.3-21.2,128.9-65.7,169.3-124l2.6-3.9c1.5-2.3,2.8-4.8,4.2-6.7
				l-30.5-38.3L1279.6,652.3z"/>
		</g>
		<g>
			<path d="M1347,404.6l101.4,63.6l28.5-12.5c-8.2-60-32.8-114.8-69.5-159.5l-0.3,0c-11.2-14-24.2-26.8-37.9-38.5l-25.8,20
				L1347,404.6z"/>
		</g>
	</g>
	<g>
		<path d="M1167.1,2183.1c0,0,14.3,1.1,24.3,4.5c9.8,4,18,0.4,20-0.4c0,0,12.8-7.1,12.5-0.4c-0.3,6.5-12.4,9.9-12.4,9.9
			c-2.3,0.7-10.5,4.1-20.4,0.5c-9.9-3.9-24.3-4.8-24.3-4.8s-14.4,0.4-24.2,3.5c-10.1,3-18.2-0.9-20.4-1.6c0,0-12.1-4.2-12.1-10.6
			c0.2-6.9,12.5,1.2,12.5,1.2c2.1,0.7,10.3,4.4,20.1,1.2C1152.6,2183.2,1167.1,2183.1,1167.1,2183.1"/>
	</g>
</g>
</svg>
